/* XPM */
static char *_5a3c55529b948e6b7e8477f7a974759iBN0NESSSJ7HebzC[] = {
/* columns rows colors chars-per-pixel */
"40 50 224 2 ",
"   c gray8",
".  c #141415",
"X  c #151515",
"o  c #151516",
"O  c #161616",
"+  c #171718",
"@  c #181818",
"#  c #181819",
"$  c #19191A",
"%  c #1A1A1B",
"&  c #1B1B1B",
"*  c #1B1B1C",
"=  c #1C1C1D",
"-  c #1C1C1E",
";  c #1D1D1E",
":  c #1E1E1F",
">  c #331F0F",
",  c #33200F",
"<  c #342010",
"1  c #352311",
"2  c #352411",
"3  c #362412",
"4  c #362512",
"5  c #362613",
"6  c #372613",
"7  c #372713",
"8  c #372714",
"9  c #382814",
"0  c #382915",
"q  c #392A15",
"w  c #392B16",
"e  c #3C3019",
"r  c #3D321B",
"t  c #1F1F20",
"y  c #1F1F21",
"u  c #202022",
"i  c #222223",
"p  c #222224",
"a  c #232325",
"s  c #262628",
"d  c #272729",
"f  c #583629",
"g  c #5E3A2D",
"h  c #5E3B2D",
"j  c #624432",
"k  c #793B5D",
"l  c #793C5D",
"z  c #793C5E",
"x  c #7A3D5E",
"c  c #7A3E5E",
"v  c #7A3F5E",
"b  c #7A405E",
"n  c #7A405F",
"m  c #7A415F",
"M  c #7B435F",
"N  c #7B445F",
"B  c #7B4460",
"V  c #7B4560",
"C  c #7B4660",
"Z  c #7B4760",
"A  c #7C4760",
"S  c #7C4B61",
"D  c #837F8F",
"F  c #83808F",
"G  c #83818F",
"H  c #83828F",
"J  c #83838F",
"K  c #84818F",
"L  c #84828F",
"P  c #84848E",
"I  c #84868E",
"U  c #84878E",
"Y  c #868B8D",
"T  c #85888E",
"R  c #85898E",
"E  c #858A8E",
"W  c #868C8D",
"Q  c #868D8D",
"!  c #868E8D",
"~  c #878E8D",
"^  c #878F8D",
"/  c #87948D",
"(  c #88958C",
")  c #89968C",
"_  c #9C9B97",
"`  c #9D9B97",
"'  c #9C9C97",
"]  c #9C9D97",
"[  c #9D9998",
"{  c #9D9A98",
"}  c #9D9B98",
"|  c #AAADBD",
" . c #ABACBE",
".. c #ABADBE",
"X. c #ABACBF",
"o. c #A7B5B3",
"O. c #A7B4B4",
"+. c #A9B0BA",
"@. c #C69BAF",
"#. c #C49EAD",
"$. c #C59CAE",
"%. c #C59DAE",
"&. c #C79AB0",
"*. c #8ECA82",
"=. c #8ECB82",
"-. c #8FCB82",
";. c #8FCC82",
":. c #8FCD82",
">. c #90CC82",
",. c #90CD82",
"<. c #91CD82",
"1. c #90CE82",
"2. c #91CE82",
"3. c #91CF82",
"4. c #91CE83",
"5. c #92CE82",
"6. c #92CF82",
"7. c #92CF83",
"8. c #91D082",
"9. c #92D082",
"0. c #93D082",
"q. c #92D182",
"w. c #93D182",
"e. c #92D083",
"r. c #93D083",
"t. c #92D183",
"y. c #93D183",
"u. c #93D282",
"i. c #92D283",
"p. c #93D283",
"a. c #93D383",
"s. c #94D183",
"d. c #94D282",
"f. c #94D382",
"g. c #94D283",
"h. c #95D283",
"j. c #94D383",
"k. c #95D383",
"l. c #96D383",
"z. c #94D482",
"x. c #95D582",
"c. c #94D483",
"v. c #95D483",
"b. c #94D583",
"n. c #95D583",
"m. c #96D483",
"M. c #97D483",
"N. c #96D583",
"B. c #97D583",
"V. c #95D683",
"C. c #95D783",
"Z. c #96D683",
"A. c #97D683",
"S. c #96D783",
"D. c #97D783",
"F. c #97D684",
"G. c #98D683",
"H. c #98D783",
"J. c #96D883",
"K. c #97D883",
"L. c #97D983",
"P. c #97DA83",
"I. c #98D883",
"U. c #98D983",
"Y. c #99D983",
"T. c #98DA83",
"R. c #99DA83",
"E. c #98DB83",
"W. c #99DB83",
"Q. c #99DC83",
"!. c #99D984",
"~. c #99DA84",
"^. c #9ADA84",
"/. c #9ADB84",
"(. c #B9BFD0",
"). c #BABFD1",
"_. c #BBBED4",
"`. c #BCBED5",
"'. c #BCBDD6",
"]. c #BCBDD7",
"[. c #BDBDD7",
"{. c #BCBED6",
"}. c #BDBDD8",
"|. c #B5C2C6",
" X c #B7C1CB",
".X c #B9C0CF",
"XX c #D1DFCD",
"oX c #CCD6DE",
"OX c #D7E1D6",
"+X c #D8E1D6",
"@X c #D8E1D7",
"#X c #D9E1D8",
"$X c #DCE1DB",
"%X c #DDE1DD",
"&X c #DDE2DE",
"*X c #DEE2DF",
"=X c #DFE2DF",
"-X c #CFD6E1",
";X c #D0D6E4",
":X c #D1D6E6",
">X c #D2D6E6",
",X c #D2D6E7",
"<X c #D3D6E8",
"1X c #D3D6E9",
"2X c #D3D6EA",
"3X c #D4D6EB",
"4X c #D5D6EB",
"5X c #D5D5ED",
"6X c #D5D6EC",
"7X c #D5D6ED",
"8X c #D6D6ED",
"9X c #D6D6EE",
"0X c #DFE2E0",
"qX c #D9EFE7",
"wX c #DAF0E8",
"eX c #DBF1EA",
"rX c #DCF1EB",
"tX c #DCF1EC",
"yX c #DDF1ED",
"uX c #DEF1EE",
"iX c #DEF2EE",
"pX c #DEF2EF",
"aX c #DFF2F0",
"sX c #E0E2E1",
/* pixels */
"Q.Q.Q.W.W.H.A.A.A.A.A.A.A.A.H.W.W.L.w.3.3.3.k.H.W.W.W.W.A.A.A.A.A.k.3.3.3.3.k.A.",
"W.W.Q.W.W.H.A.A.A.A.A.A.A.A.A.W.W.L.w.3.3.w.k.H.W.W.W.W.A.A.A.A.A.k.w.3.3.w.A.H.",
"W.W.W.W.W.H.A.A.A.A.A.A.A.k.A.A.W.L.w.3.3.w.A.A.H.W.W.W.W.A.A.A.A.A.k.w.w.k.A.W.",
"W.W.W.W.W.H.A.A.W.L.L.A.k.w.w.A.W.L.w.3.3.w.A.A.A.H.W.W.W.W.W.A.A.A.A.A.A.A.W.W.",
"H.H.^.^.W.H.A.H.W.L.L.A.w.3.3.A.W.L.w.3.3.w.A.A.A.A.H.W.W.W.W.W.A.H.W.^.^.Q.Q.Q.",
"k.k.A.W.H.H.A.A.W.L.L.A.k.3.w.k.A.A.w.w.w.k.A.A.A.A.H.W.W.W.W.W.W.W.W.W.Q.Q.Q.Q.",
"w.w.A.A.H.A.A.A.4 4 4 1 w 4 1 4 4 4 4 w 1 4 4 4 4 4 1 1 e 4 W.W.W.W.W.Q.Q.Q.Q.Q.",
"w.w.A.A.H.A.A.8 g g g g g g g g g g g g g g g g g g g g g g 1 W.W.W.Q.Q.Q.Q.Q.Q.",
"3.3.k.A.A.A.1 g g 1 4 w r 1 1 1 1 1 1 1 1 1 1 1 1 1 1 1 1 g g 1 Q.Q.Q.Q.Q.Q.Q.Q.",
"3.3.3.k.k.A.w g 4 k.k.k.A.A.A.w.3.w.A.L.H.A.A.A.L.W.W.W.Q.1 g w Q.W.Q.Q.Q.Q.Q.Q.",
"3.-.3.3.w.k.4 g w w.w.[ [ [ [ [ [ [ [ [ [ [ [ _ [ [ [ W.Q.1 g 4 W.W.Q.Q.Q.Q.Q.Q.",
"3.;.-.;.3.w.w g 4 3.' aXaXaXtXaXaXaXaXaXaXaXaXtXtXtXaX[ Q.1 g 4 W.W.Q.Q.Q.W.W.W.",
"w.3.;.-.3.3.4 g ' ' ' tXtXaXaXaXaXtXtXaXaXaXaXaXaXaXtX[ [ [ g 1 W.W.W.W.W.L.A.A.",
"A.w.3.-.-.3.8 [ tXwX[ tXaXaXaXaXaXaXaXaXaXaXaXtXaXaXaX[ tXtX[ 4 W.W.W.W.W.A.k.w.",
"A.A.w.;.-.-._ tXaXtX[ aXaXaXaXaXtXwXtXtXtXtXtXaXaXaXaX[ tXaXtX[ H.H.W.^.W.A.3.3.",
"L.L.A.w.3.;.[ qXtXl V k V S m m m N l l m m A A k l k S k tXrX[ k.A.A.H.A.k.3.3.",
"W.W.A.A.w.3.[ k l &.&.&.&.&.&.&.&.&.&.&.&.&.&.&.&.&.&.&.&.l V [ w.w.k.A.A.w.3.-.",
"W.W.W.L.A.w.l &.&.&.&.&.&.&.&.&.&.&.&.&.&.&.&.&.&.&.&.&.&.&.&.l 3.3.w.k.k.3.;.-.",
"W.W.W.W.A.V &.&.&.&.&.&.&.&.&.&.&.&.&.&.&.&.&.&.&.&.&.&.&.&.&.&.m 3.3.w.w.3.;.-.",
"W.W.W.W.W.k &.&.&.-X4X1X7X1X7X7X1X:X7X7X4X4X1X:XoX:X7X1X:X&.&.&.m -.3.3.3.3.-.-.",
"H.A.W.W.W.l &.7X:X#.&.&.&.&.&.&.&.&.&.&.&.&.&.&.&.&.&.@.#.7X}.&.N ;.-.-.-.-.3.3.",
"H.A.W.W.W.W :X&.&.7X7X7X7X7X7X7X7X7X7X7X7X7X7X7X7X7X7X7X7X#.#.X.W 3.;.-.-.;.3.w.",
"H.A.H.W.W.l &.7X7X7X7X7X7X7X7X  p 7X= * u * * 7X7X7X7X7X7X7X}.&.k w.3.;.;.3.k.A.",
"H.A.A.H.W.W 7X7X7X7X7X7X7X7X  % y 7Xu 7X7Xu % 7X7X7X7X7X7X7X}.X.E A.w.3.3.w.A.W.",
"A.A.A.H.W.F 7X7X7X7X7X7X7X%   * 7X7X7X7X7X* = 7X7X7X7X7X7X7X}.X.E L.A.w.w.A.L.W.",
"A.A.W.W.W.F 7X7X7X7X7X7X% %   7X7X7X7X7X* = * 7X7X7X7X7X7X7X[.X.W W.L.A.A.L.W.W.",
"A.H.W.W.W.F 7X7X7X7X7Xy   % 7X7X7X7X7Xd % * 7X7X7X7X7X7X7X7X[.X.F W.W.W.W.W.W.W.",
"H.H.W.W.W.F 7X7X7X7X% %   7X7X7X7X7Xp % d 7X7X7X7X7X7X7X7X7X[.X.E W.W.Q.Q.Q.Q.W.",
"W.W.W.W.A.F 7X7X7X7X=   7X7X7X7X7X7X= * 7X7X7X7X7X7X7X7X7X7X[.+.F W.W.W.Q.Q.Q.W.",
"W.W.H.A.A.E 7X7X7X7X% % % =   %   7X= = 7X7X= 7X7X7X7X7X7X7X[.O.F H.W.W.Q.Q.Q.Q.",
"L.A.A.A.A.F 7X7X7X7X    +   *   = 7Xy = p % = 7X7X7X7X7X7X7X[.+.F A.W.W.W.W.W.W.",
"k.k.k.A.H.) 7X7X7X7X7X7X7X7X7X= % 7X7X7X7X7X7X7X7X7X7X7X7X7X[.X.F A.A.H.W.W.H.A.",
"w.w.k.k.H.W 7X7X7X7X7X7X7X7X7X    7X7X7X7X7X7X7X7X7X7X1X}.7X[.X.F A.A.A.H.H.A.A.",
"3.3.k.A.H.W 7X7X7X7X7X7X7X7X7X7X7X7X7X7X7X7X7X7X7X7X7X[.7X[.[.X.F A.A.A.A.A.A.A.",
"3.3.k.F.A.E 7X7X7X7X7X7X7X7X7X7X7X7X7X7X7X7X7X7X7X:X}.7X[.7X}.X.E A.A.A.A.H.A.A.",
"3.3.A.A.A.E 7X7X7X7X7X7X7X7X7X7X7X7X7X7X7X7X7X7X7X}.7X[.7X}.|.X.W A.A.A.H.H.W.A.",
"3.3.k.A.k.E 7X7X7X[.[.[.[.}.}.[.(.}.}.}.}.}.}.}.}.}.}.}.}.}.}.X.P A.A.A.W.W.W.A.",
"w.w.w.w.w.E 7X}.[.[.[.(.[.[.}.(. X}.}.}.}.}.}.}.}.}.}.}.}.}.}.X.F A.A.A.W.W.W.L.",
"w.w.w.w.w.E _.[.[.E F F P F F P F F F F F F F F F F F F F }. XX.F W.W.W.W.W.W.A.",
"k.k.3.3.3.D }..XF @XsX0X0X&X$X&XXXsX0X&X0X&X&X#X0X0X@XsXOXF }.o.F W.W.W.W.W.A.A.",
"k.k.w.w.w.k.D D L D D F F D L F F F F F F ) / P F F F F F F F F L.L.W.W.W.W.W.W.",
"k.A.A.A.A.A.L.W.1 g j > W.W.W.A.A.A.A.A.A.W.W.L.A.k.4 g g w A.A.w.A.L.W.W.W.W.W.",
"A.A.L.L.L.W.W.W., g g 1 W.W.W.W.A.A.A.A.A.W.W.A.w.3.4 g f w k.w.3.w.A.L.Q.W.W.W.",
"A.W.W.W.Q.Q.Q.W.W., , W.W.W.W.W.H.A.A.A.A.W.W.A.w.3.3.1 r w.w.3.-.3.A.L.W.W.L.L.",
"A.W.W.Q.Q.Q.Q.W.W.W.W.W.W.W.W.W.W.H.A.A.A.A.W.A.w.3.-.3.3.3.3.3.-.3.A.L.W.A.A.A.",
"W.W.Q.Q.Q.Q.Q.Q.W.W.W.W.W.W.W.W.W.W.H.A.A.A.A.k.w.3.;.;.-.>.>.-.-.3.k.L.L.A.w.w.",
"W.Q.Q.Q.Q.Q.Q.Q.Q.Q.W.W.W.W.W.W.Q.W.W.H.A.A.k.k.w.3.3.;.-.-.-.-.3.3.w.A.A.w.w.w.",
"W.Q.Q.Q.Q.Q.Q.Q.Q.Q.W.W.W.W.W.W.Q.W.W.A.A.k.w.w.w.w.w.3.;.-.-.3.3.w.w.k.k.w.w.k.",
"Q.Q.Q.Q.Q.Q.Q.Q.Q.Q.W.W.W.H.H.W.W.W.H.A.k.w.3.3.A.A.A.w.3.3.3.3.k.k.w.3.3.w.k.A.",
"Q.Q.Q.Q.Q.Q.Q.Q.Q.Q.W.W.W.A.H.W.W.W.H.A.k.3.-.3.A.L.A.w.3.3.3.w.k.k.3.3.3.3.k.A."
};
