/* XPM */
static char *b2c72ba4477d4338e917f4789ceef3474YOAZfOJiekTvYIW[] = {
/* columns rows colors chars-per-pixel */
"40 50 173 2 ",
"   c #010302",
".  c #0E0100",
"X  c #010B00",
"o  c #020D0A",
"O  c #0D0E0B",
"+  c #0A0908",
"@  c #170100",
"#  c #1F0100",
"$  c #021601",
"%  c #03190D",
"&  c #0B0811",
"*  c #091113",
"=  c #1C1D15",
"-  c #240000",
";  c #2F0000",
":  c #230800",
">  c #210E0A",
",  c #340100",
"<  c #3A0908",
"1  c #381712",
"2  c #222618",
"3  c #1F2322",
"4  c #382D23",
"5  c #272C26",
"6  c #500C0B",
"7  c #6F1B10",
"8  c #731D1E",
"9  c #49231A",
"0  c #60241A",
"q  c #73251B",
"w  c #542926",
"e  c #5E2728",
"r  c #4C3130",
"t  c #4E3D3E",
"y  c #413A32",
"u  c #5F3738",
"i  c #6C2C2B",
"p  c #6C2827",
"a  c #7C2A29",
"s  c #752B2C",
"d  c #6F302B",
"f  c #632E33",
"g  c #6D2F33",
"h  c #722D32",
"j  c #7E2E31",
"k  c #633C3C",
"l  c #643034",
"z  c #70393E",
"x  c #7A3C3E",
"c  c #753636",
"v  c #3B5339",
"b  c #2C4738",
"n  c #4A4C3B",
"m  c #6F473F",
"M  c #724339",
"N  c #753D42",
"B  c #7E3B42",
"V  c #3C5844",
"C  c #474846",
"Z  c #5B4C4C",
"A  c #584447",
"S  c #58584A",
"D  c #714F45",
"F  c #665E4F",
"G  c #645454",
"H  c #44614D",
"J  c #53654A",
"K  c #58614C",
"L  c #4B6155",
"P  c #506B58",
"I  c #576B54",
"U  c #67645E",
"Y  c #687257",
"T  c #586762",
"R  c #626C6B",
"E  c #637966",
"W  c #7A7C6F",
"Q  c #891819",
"!  c #9C1F19",
"~  c #AB1E17",
"^  c #89221A",
"/  c #961E20",
"(  c #862A29",
")  c #902221",
"_  c #862931",
"`  c #932F31",
"'  c #893939",
"]  c #A12928",
"[  c #A62C28",
"{  c #BF2428",
"}  c #BE302E",
"|  c #C01C1A",
" . c #D9282C",
".. c #C02E31",
"X. c #CD3634",
"o. c #D7363E",
"O. c #E03837",
"+. c #B63A44",
"@. c #B93E43",
"#. c #CA3C46",
"$. c #D63940",
"%. c #F23F42",
"&. c #8A434B",
"*. c #9C444D",
"=. c #954548",
"-. c #9C524F",
";. c #AB4D4D",
":. c #BD4344",
">. c #B04243",
",. c #AA5250",
"<. c #B74954",
"1. c #AC635D",
"2. c #A26167",
"3. c #C84D4F",
"4. c #D74644",
"5. c #CC524F",
"6. c #F04347",
"7. c #73877E",
"8. c #7A937D",
"9. c #808E77",
"0. c #80977B",
"q. c #7F8A86",
"w. c #799080",
"e. c #828B86",
"r. c #A28B91",
"t. c #AA9799",
"y. c #92A58F",
"u. c #8AA893",
"i. c #A2A493",
"p. c #ACA696",
"a. c #B7A596",
"s. c #BE9BA2",
"d. c #9ABAA2",
"f. c #99AAA4",
"g. c #BAB3A1",
"h. c #C7898E",
"j. c #C88D89",
"k. c #C89C8F",
"l. c #D0918C",
"z. c #C39698",
"x. c #CCA89C",
"c. c #CEA7A0",
"v. c #CBBAA8",
"b. c #E5A4A0",
"n. c #FFB6B9",
"m. c #8FCB82",
"M. c #91CE82",
"N. c #96D483",
"B. c #98D783",
"V. c #97D883",
"C. c #99DA83",
"Z. c #AED59D",
"A. c #CFC0AD",
"S. c #E1C7B6",
"D. c #C6DAC6",
"F. c #FFC3C7",
"G. c #FCCDCC",
"H. c #F0CBC3",
"J. c #E6DECD",
"K. c #F1D7C6",
"L. c #EBD7D7",
"P. c #FFD6DB",
"I. c #F4D9D9",
"U. c #FFDBDB",
"Y. c #DCE7D7",
"T. c #D3E6D4",
"R. c #FFECDE",
"E. c #FFDEE3",
"W. c #FDEAE7",
"Q. c #FFE9E8",
"!. c #F4E0E2",
"~. c #FFF4F3",
"^. c #EAF1ED",
/* pixels */
"C.C.C.C.C.B.B.B.B.B.B.B.B.B.B.V.C.B.N.m.M.M.B.B.C.C.C.C.B.B.B.B.B.N.M.M.m.M.N.B.",
"C.C.C.C.C.B.B.B.B.B.B.B.B.B.B.V.C.B.N.m.m.M.B.B.C.C.C.C.B.B.B.B.B.N.N.M.M.M.B.B.",
"C.C.C.C.C.B.B.B.B.B.B.B.B.N.N.B.C.V.N.m.m.M.N.B.C.C.C.C.C.B.B.B.B.B.N.N.N.N.B.C.",
"C.C.C.C.C.B.B.B.C.V.V.B.N.N.N.B.C.V.N.M.m.M.N.B.B.B.C.C.C.C.C.B.B.B.B.B.B.B.C.C.",
"B.B.C.C.C.B.B.B.V.V.V.B.N.m.M.B.C.V.N.m.m.M.B.B.B.B.B.C.C.C.C.B.B.C.C.C.C.C.C.C.",
"N.N.B.C.B.B.B.B.B.V.B.B.N.M.M.N.B.N.N.N.N.N.B.B.B.B.B.C.C.C.C.C.C.C.C.C.C.C.C.C.",
"N.N.B.B.B.B.B.B.B.B.B.B.N.N.N.M.N.N.N.N.B.B.B.B.B.B.B.C.C.C.C.C.C.C.C.C.C.C.C.C.",
"N.N.B.B.B.B.B.B.B.B.B.N.N.N.N.N.M.N.B.V.B.B.B.B.B.B.B.C.C.C.C.C.C.C.C.C.C.C.C.C.",
"M.M.N.N.B.B.B.B.B.B.B.N.B.N.N.N.M.N.B.V.C.C.B.B.B.B.C.C.C.C.C.C.C.C.C.C.C.C.C.C.",
"M.M.M.N.N.B.B.N.N.N.N.N.B.B.B.N.M.N.B.V.B.B.B.B.V.C.C.C.C.C.C.C.C.C.C.C.C.C.C.C.",
"M.m.M.M.N.N.B.N.N.M.M.N.B.V.B.B.N.N.B.B.B.B.B.B.V.C.C.C.C.C.C.C.C.C.C.C.C.C.C.C.",
"M.m.m.m.M.N.N.N.M.M.M.N.B.V.C.B.B.B.B.B.B.B.B.B.C.C.C.C.C.C.C.C.C.C.C.C.C.C.C.C.",
"N.M.m.m.m.M.N.N.N.N.N.N.B.B.V.V.B.B.B.B.B.B.B.C.C.C.C.C.C.C.C.C.C.C.C.C.C.V.B.B.",
"B.N.m.m.m.m.M.N.N.B.B.B.B.B.B.V.V.V.Z r u f N f C.C.C.C.C.C.C.C.C.C.V.C.C.B.N.N.",
"B.B.N.m.m.m.m.M.B.B.V.V.V.B.B.V.t A E.P.h.*.*._ j < C.C.C.C.C.C.B.B.C.C.C.B.M.M.",
"V.V.B.N.m.m.m.M.B.V.V.C.V.C.C.A !.r.s.z.P.<.+.#.@.;.i C.C.C.C.B.N.B.B.B.B.N.M.M.",
"V.V.B.B.N.M.m.M.B.V.V.C.C.C.C.t t.~.L.P.=.+.#.o.{ 3.( w B.B.B.N.N.N.N.B.B.N.M.m.",
"V.C.V.V.B.N.M.N.B.C.C.C.C.C.r W.Z C ~.Q.-.:.$. .6...>.c B.N.N.N.M.M.N.N.N.M.m.m.",
"V.C.C.V.B.B.N.N.B.C.C.C.C.C.k I.G ^.L.H.1.:.{ %. .X.Q ' B.N.N.M.m.M.M.N.N.M.m.m.",
"C.C.C.C.V.B.B.B.V.C.C.C.k z l z.I.Z ~.G.' 5.4.O.| 4.Q s B.N.N.M.m.m.m.M.M.M.m.m.",
"B.B.C.C.C.C.C.C.C.C.C.k N x h z U.Q.U.U.,.] } X.~ ] ( x N.N.N.M.M.m.m.m.m.m.M.M.",
"B.B.C.C.C.C.C.C.C.C.C.# e 2.&.h P.G.E.n.` / [ ! ^ 7 0 9 N.N.N.N.N.M.m.m.m.m.M.N.",
"B.B.B.C.C.C.C.C.C.C.C.C.- g B c p c F.' ` Q ) ^ q c D @ B.B.B.B.B.N.M.m.m.M.N.B.",
"B.B.B.B.C.C.C.C.C.B.C.C.C.< ; , g i h a 8 ( a p M : . B.B.B.B.B.C.B.N.M.M.N.B.V.",
"B.B.B.B.C.C.C.C.C.B.C.C.C.C.@ m , j.l.d b.6 e w @ y S   B.B.B.C.C.V.B.N.N.B.V.C.",
"B.B.C.C.C.C.C.C.C.C.C.C.C.C.F a.# R.k.9 x.c.1 > U C     + C.C.C.C.C.V.B.B.V.V.C.",
"B.B.C.C.C.B.B.B.C.C.C.C.C.C.i.J.A.S.K.v.p.a.4 4 = 5 3 C.C.C.C.C.C.C.C.C.C.C.C.C.",
"B.C.C.C.C.B.B.B.C.C.C.C.C.B.B.p.Z.J.g.i.p.S n   X 2 + O C.C.C.C.C.C.C.C.C.C.C.C.",
"C.C.C.C.B.B.B.B.C.C.B.N.N.N.N.N.N.n i.K X J Y Y   C.C.C.C.C.C.C.C.C.C.C.C.C.C.C.",
"C.C.B.B.B.B.B.B.C.C.B.B.N.M.M.N.N.W n 9.I $ J 0.y.$ C.B.B.B.B.B.B.B.C.C.C.C.C.C.",
"V.B.B.B.B.B.B.C.C.C.B.B.N.m.M.N.  U Y.T.v $ E 8.P X C.B.B.B.B.B.B.B.C.C.C.C.C.C.",
"N.N.N.B.B.B.C.C.C.C.B.B.N.M.M.N.O   D.D.V $ P w.E X C.B.B.B.B.B.B.B.B.B.C.C.B.B.",
"M.M.N.B.B.B.C.C.C.C.B.B.N.M.M.N.  e.T.u.d.X % T R   C.C.B.B.B.B.B.B.B.B.B.B.B.B.",
"M.M.N.B.B.B.B.C.C.B.B.B.N.M.M.N.C q.7.H u.L     & C.C.C.B.B.B.B.B.B.B.B.B.B.B.B.",
"M.M.N.N.B.N.N.N.B.B.B.B.N.N.N.N.B.o ^.b V f.* C.C.C.C.C.B.B.B.B.B.B.B.B.B.B.B.B.",
"M.M.B.B.B.N.M.M.N.B.B.B.B.B.B.B.B.B.o     o N.C.C.C.C.C.B.B.B.B.B.B.B.B.B.C.C.B.",
"M.M.N.B.N.M.M.M.N.B.B.B.B.N.N.N.B.B.B.V.V.B.B.C.C.C.C.B.B.B.B.B.B.B.B.B.C.C.C.V.",
"N.N.N.N.N.N.N.N.B.B.B.B.B.B.B.B.B.B.C.C.C.C.B.C.C.C.C.B.B.B.B.B.B.B.B.B.C.C.C.V.",
"M.N.N.N.N.N.N.N.B.V.B.B.B.B.B.B.B.B.B.C.C.C.C.C.C.C.C.B.B.B.B.B.V.V.C.C.C.C.C.B.",
"N.N.M.M.M.N.N.B.V.C.C.B.B.B.B.B.B.B.B.B.B.N.C.C.C.B.B.B.B.B.B.C.V.C.C.C.C.C.B.B.",
"N.N.N.M.N.B.B.V.C.C.C.C.C.B.B.B.B.B.B.B.B.C.C.C.B.B.N.N.B.B.B.B.V.V.C.C.C.V.B.B.",
"N.B.B.N.B.V.V.C.V.C.C.C.C.C.C.B.B.B.B.B.B.C.C.V.B.N.M.N.B.B.B.B.N.B.V.C.C.C.V.V.",
"B.B.V.C.V.C.C.C.B.B.B.C.C.C.C.B.B.B.B.B.B.C.C.B.N.M.M.N.N.N.N.N.M.N.B.V.C.C.C.C.",
"B.C.C.C.C.C.C.C.V.B.C.C.C.C.C.B.B.B.B.B.B.B.C.B.N.M.m.M.M.M.N.M.m.M.B.V.C.V.V.V.",
"B.C.C.C.C.C.C.C.C.C.C.C.C.C.C.C.C.B.B.B.B.B.C.B.N.M.m.M.M.M.M.M.m.M.B.V.V.B.B.B.",
"C.C.C.C.C.C.C.C.C.C.C.C.C.C.C.C.C.V.B.B.B.B.B.N.N.M.m.m.m.M.M.m.m.M.N.V.B.B.N.N.",
"C.C.C.C.C.C.C.C.C.C.C.C.C.C.C.C.C.V.B.B.B.B.N.N.M.M.m.m.m.m.m.m.M.M.N.B.B.N.N.N.",
"C.C.C.C.C.C.C.C.C.C.C.C.C.C.C.C.C.V.B.B.N.N.N.M.N.N.N.m.m.m.m.M.M.N.N.N.N.N.N.N.",
"C.C.C.C.C.C.C.C.C.C.C.C.C.C.C.C.C.C.C.B.N.N.M.M.B.B.B.N.M.M.m.M.N.N.M.M.M.M.N.B.",
"C.C.C.C.C.C.C.C.C.C.C.C.C.B.C.C.C.C.C.B.N.M.m.M.B.V.B.N.m.M.M.N.N.N.M.m.m.M.N.B."
};
