/* XPM */
static char *xpm_[] = {
/* columns rows colors chars-per-pixel */
"40 50 183 2 ",
"   c #030201",
".  c #0C0202",
"X  c #050B03",
"o  c #01020A",
"O  c #030C0E",
"+  c #0F0E0A",
"@  c #130201",
"#  c #1D0100",
"$  c #140B09",
"%  c #180E04",
"&  c #081A0E",
"*  c #000512",
"=  c #0C0C12",
"-  c #0C0F1E",
";  c #0B1416",
":  c #181815",
">  c #260000",
",  c #280000",
"<  c #340000",
"1  c #380609",
"2  c #361816",
"3  c #2A2017",
"4  c #352019",
"5  c #011E21",
"6  c #141724",
"7  c #1D2623",
"8  c #1C3638",
"9  c #2E2E2C",
"0  c #3C362A",
"q  c #26393A",
"w  c #691F28",
"e  c #711D2A",
"r  c #412323",
"t  c #5E2629",
"y  c #533535",
"u  c #483A39",
"i  c #6C2D2A",
"p  c #6A272C",
"a  c #752925",
"s  c #76382D",
"d  c #722F38",
"f  c #603137",
"g  c #653B3A",
"h  c #793C3A",
"j  c #3C453A",
"k  c #40423F",
"l  c #4E4639",
"z  c #5C463E",
"x  c #59493D",
"c  c #644239",
"v  c #203D45",
"b  c #2D484F",
"n  c #374245",
"m  c #354E53",
"M  c #474544",
"N  c #544742",
"B  c #50524D",
"V  c #5B595E",
"C  c #6C4948",
"Z  c #704443",
"A  c #62594C",
"S  c #67524A",
"D  c #615A52",
"F  c #7D5052",
"G  c #7F5559",
"H  c #494E61",
"J  c #6F5963",
"K  c #50656A",
"L  c #6F7B77",
"P  c #811723",
"I  c #802427",
"U  c #822F37",
"Y  c #86383B",
"T  c #93403C",
"R  c #973E44",
"E  c #8A3A45",
"W  c #A13F4C",
"Q  c #8B4A4D",
"!  c #854648",
"~  c #904741",
"^  c #9C4C49",
"/  c #95494B",
"(  c #835653",
")  c #9C5554",
"_  c #9F5856",
"`  c #965559",
"'  c #A44B4C",
"]  c #A34749",
"[  c #AC514E",
"{  c #B34A56",
"}  c #A7595A",
"|  c #B55257",
" . c #AE5C60",
".. c #80676A",
"X. c #986666",
"o. c #846A75",
"O. c #A06567",
"+. c #B3646A",
"@. c #82837B",
"#. c #BD827C",
"$. c #7D7E80",
"%. c #7F8287",
"&. c #73858F",
"*. c #718E94",
"=. c #8C8684",
"-. c #868C8B",
";. c #8A8C81",
":. c #99998F",
">. c #8E9498",
",. c #989792",
"<. c #988684",
"1. c #AA9390",
"2. c #B99E95",
"3. c #ABAB9F",
"4. c #A2AD9F",
"5. c #B2A89B",
"6. c #869EA8",
"7. c #A79EA1",
"8. c #8FA3AA",
"9. c #9EA6B4",
"0. c #9DB0B7",
"q. c #A5A4AB",
"w. c #ACB0A6",
"e. c #BBBBAF",
"r. c #A4A9B5",
"t. c #ADB2BF",
"y. c #A4B5BC",
"u. c #C28884",
"i. c #C49289",
"p. c #D19491",
"a. c #E39690",
"s. c #C6A49A",
"d. c #D1A09C",
"f. c #C0ADA2",
"g. c #C7AEAA",
"h. c #D3B3B4",
"j. c #C7B9B9",
"k. c #E5B4AF",
"l. c #8FCB82",
"z. c #91CE82",
"x. c #95D483",
"c. c #98D783",
"v. c #97D883",
"b. c #99DA83",
"n. c #D7C6BB",
"m. c #DAD3BD",
"M. c #E9CFBE",
"N. c #E1C6B1",
"B. c #E2D8BF",
"V. c #F3D4BF",
"C. c #B7BAC7",
"Z. c #DFD2CA",
"A. c #D7C5C5",
"S. c #FFCECF",
"D. c #FEC8C5",
"F. c #E0D3C2",
"G. c #F1D7C0",
"H. c #FFD8C8",
"J. c #F2D5CF",
"K. c #F5D3D4",
"L. c #FFD3D4",
"P. c #FFD8D5",
"I. c #FED3DB",
"U. c #FFDADB",
"Y. c #F4DAD9",
"T. c #DFE3D5",
"R. c #F3E3CC",
"E. c #E7E2D5",
"W. c #FEE1DB",
"Q. c #FFEBDF",
"!. c #F5E7D8",
"~. c #FEDDE4",
"^. c #F4DDE3",
"/. c #E5EBE1",
"(. c #FFE3E3",
"). c #FDECE6",
"_. c #FFE3EC",
"`. c #FFEBEB",
"'. c #F1E7E6",
"]. c #E8F2E7",
"[. c #F3F2EA",
"{. c #E3F8FA",
"}. c #FCF4F3",
/* pixels */
"b.b.b.b.b.b.c.x.x.c.c.c.x.c.c.b.b.x.x.l.z.z.c.c.c.b.v.b.x.c.x.c.x.x.z.z.z.z.x.c.",
"b.b.b.b.b.b.x.c.c.x.x.x.c.x.x.b.b.v.x.l.z.z.x.c.b.b.b.c.x.c.c.x.v.v.z.z.z.z.x.v.",
"b.b.b.b.b.c.c.c.x.b.x.v.x.x.x.x.v.v.x.l.z.z.x.v.c.b.b.c.b.x.c.x.b.v.b.b.x.x.x.v.",
"b.b.b.b.b.c.c.x.b.v.v.x.x.z.x.x.v.x.x.l.l.x.x.v.x.b.c.b.b.b.b.c.b.b.b.b.v.v.v.v.",
"c.c.c.b.b.c.x.c.b.v.v.v.x.z.z.x.b.v.z.l.l.x.x.x.c.x.c.b.b.b.b.b.b.b.b.b.b.b.b.b.",
"x.x.c.c.c.c.c.c.c.b.v.x.x.z.z.x.x.x.x.z.z.x.x.x.x.x.c.b.b.b.b.b.b.b.b.b.b.b.b.b.",
"z.x.x.c.c.x.x.c.x.c.x.x.x.z.z.x.z.x.x.x.v.x.x.x.x.c.c.b.b.b.b.b.b.b.b.b.b.b.b.b.",
"x.z.x.c.c.c.c.x.b.x.c.x.x.x.x.z.z.z.v.v.v.v.x.v.x.c.b.b.b.b.b.b.b.b.b.b.b.b.b.b.",
"z.z.z.c.x.x.x.c.x.x.x.x.x.x.x.z.z.z.x.b.c.c.x.x.c.c.b.b.b.b.b.b.b.b.b.b.b.b.b.b.",
"z.z.z.x.x.x.x.x.x.x.x.x.x.x.x.x.z.x.x.v.c.c.c.c.c.c.b.b.b.b.b.b.b.b.b.b.b.b.b.b.",
"z.l.z.z.x.x.x.x.z.x.z.x.x.v.b.x.x.x.x.c.c.c.c.c.c.b.b.b.b.b.b.b.b.b.b.b.b.b.b.b.",
"z.l.l.z.l.l.x.x.z.z.z.z.x.v.b.x.x.x.c.x.c.x.c.b.b.b.b.b.b.b.b.b.b.b.b.b.b.b.b.b.",
"z.z.l.l.l.x.x.x.x.z.x.x.x.v.x.b.x.c.x.c.b.b.b.b.b.b.b.b.b.b.b.b.b.b.b.b.v.v.v.v.",
"x.x.z.l.l.l.l.l.x.x.x.x.x.v.b.b.b.b.b.x.b.b.b.b.b.b.b.b.b.b.b.b.b.b.b.b.v.x.x.x.",
"x.x.x.l.l.l.l.x.x.v.v.v.v.c.b.b.b.b.x.c.b.b.b.b.b.b.b.b.b.b.b.b.v.x.v.v.v.v.z.z.",
"v.x.x.l.l.l.l.l.x.v.v.b.v.b.x.b.b.b.b.b.b.b.b.b.b.b.b.b.b.b.b.b.x.x.x.v.x.x.z.l.",
"b.v.v.v.z.z.z.z.b.b.b.b.b.b.b.b.b.b.b.b.b.b.b.b.b.b.x.c.c.x.x.x.z.x.x.v.x.x.z.l.",
"v.v.v.v.v.z.z.z.b.b.b.b.b.b.b.b.b.b.b.b.b.b.b.b.b.b.x.x.c.x.x.x.z.z.l.x.x.z.l.l.",
"b.b.v.v.v.x.x.x.b.v.b.b.b.b.b.b.b.b.b.b.b.b.b.b.b.c.x.x.x.x.z.z.l.z.z.z.z.z.l.l.",
"v.b.v.v.v.v.v.v.v.v.b.b.b.b.c.b.b.b.b.b.b.b.b.b.b.c.x.x.x.x.x.z.l.l.z.z.l.l.l.l.",
"b.v.v.b.b.b.b.b.v.b.b.v.c.c.c.b.b.b.b.b.b.b.b.b.x.z.l.x.x.x.z.z.z.l.z.l.l.l.z.z.",
"b.c.b.b.b.b.b.b.b.v.b.b.b.c.b.b.b.b.b.b.b.b.b.b.x.x.z.x.x.x.x.x.z.z.l.l.l.z.z.z.",
"c.c.c.c.b.b.b.b.b.b.v.b.b.c.b.b.b.b.b.b.b.b.b.b.x.x.x.x.c.x.c.x.v.z.z.z.l.z.v.v.",
"x.c.c.c.b.b.b.v.c.c.v.b.b.b.b.b.b.b.b.b.b.b.b.b.c.c.c.c.c.c.x.c.v.v.v.z.z.z.v.b.",
"c.x.c.c.c.b.b.v.b.c.c.c.b.b.b.c.c.c.c.c.c.c.x.x.c.c.b.c.c.c.c.b.b.b.x.z.x.x.b.b.",
"x.c.c.b.v.v.b.c.c.c.b.b.b.b.c.x.w E e Y U w p x.c.c.b.b.b.b.b.b.b.b.v.v.v.v.b.b.",
"c.c.v.b.v.c.c.c.b.b.b.b.b.b.f d / W { P { | } p Z x.c.b.b.b.b.b.b.b.b.b.b.b.b.b.",
"c.c.b.v.b.c.c.c.b.b.b.b.b.y G Q +.R ' I ' T Y X.F C c.b.b.b.b.b.b.b.b.b.v.v.b.b.",
"c.b.c.c.c.c.x.c.c.b.c.c.v.> X.I.L.~.U.u.L.W.U.U.( # b.b.b.c.c.c.b.v.b.b.b.b.b.b.",
"b.b.c.c.c.c.x.c.b.v.c.c.. J (.K.~.K._.1.}.I.(._.^.o.. c.c.c.c.c.v.v.b.v.b.b.b.b.",
"v.c.x.x.x.c.c.c.b.b.x.x.: N _.`.`.!.[.B v }.^.~._.J . c.c.c.c.x.x.x.b.b.b.b.v.v.",
"x.x.x.c.c.c.c.b.b.b.v.x.  `.).!.Z.[.j 4.{./.'._.I.^.= c.c.x.x.c.x.v.v.b.b.b.v.x.",
"z.z.x.x.c.c.b.b.b.b.x.: . `.U.J.).A A l A l (.U.I.`.    v.c.x.c.c.x.c.c.c.c.c.x.",
"z.z.x.c.b.c.c.c.b.c.$ u # # ( X.W.D.H.i.P.U.S.) ` #   j & x.c.x.x.c.c.x.c.x.x.x.",
"l.z.x.x.x.x.x.x.c.x.* @ h.1 ` ) T Q _ / ^ ' ' } Q , 5.X X x.c.c.x.x.x.c.x.b.v.x.",
"l.z.x.c.x.z.z.x.x.x.x.$ 1.Z h p _ _ ~ ^ ^ [ ] e h g g.. x.c.x.x.c.c.x.c.c.c.b.v.",
"z.z.x.x.x.z.l.z.x.x.c.  4 C d.i #.s < < s a a.s p.( 2 @ v.v.x.b.c.c.x.v.b.c.b.x.",
"x.z.z.x.z.x.x.z.x.x.c.  3 4 s.s.Q.@ N.V.V., H.i.k., r . x.x.c.x.x.c.b.x.c.b.b.b.",
"z.z.x.z.x.z.x.x.x.b.c.x.  @ z 2.J.m.!.m.B.R.M.s.c > @ x.b.x.b.c.b.b.b.b.b.b.c.x.",
"x.x.z.z.z.x.x.x.v.b.b.c.c.@ n.S e.n.R.5.m.F.f.x z b.x.c.x.c.x.b.b.b.b.b.b.x.x.b.",
"x.z.z.z.v.b.b.b.b.b.v.v.  j.A.<.+ V :.w.e.x % E.0 c.x.x.x.x.x.v.v.v.b.b.b.b.v.v.",
"x.v.v.v.v.b.b.b.b.x.v.L -.q.7.=.M M 7 : & 9 ;.3.3.. z.x.x.x.x.x.x.x.v.b.b.b.b.b.",
"v.x.b.v.v.v.b.b.b.c.c.X >.$.V = %.n 8 8 q n -.w.E.  z.x.x.x.x.x.l.x.x.b.b.b.v.b.",
"v.v.b.b.b.b.b.b.b.c.c.b.= . o o 6 K ; 8 5 m q   T.@.X z.z.x.z.z.l.l.x.b.b.b.v.x.",
"v.v.b.b.b.b.b.b.b.b.b.b.b.b.o >.r.&.b *.v 6.y.  ;.,.+ z.z.z.z.l.l.z.x.v.v.v.x.x.",
"v.b.b.b.b.b.b.b.b.b.b.b.b.b.= C.r.t.9.9.C.H * x.  X l.l.l.l.z.l.l.l.x.v.x.x.x.x.",
"b.b.b.b.b.b.b.b.b.b.b.b.b.b.o q.C.9.* - * 6 x.x.z.l.l.l.l.l.l.l.z.z.z.v.x.x.z.z.",
"b.b.b.b.b.b.b.b.b.b.b.b.b.v.v.- r.8.* x.x.z.l.x.x.x.x.z.l.l.l.z.z.z.z.x.x.z.x.x.",
"b.b.b.b.b.b.b.b.b.b.b.b.b.b.b.X {.{.X x.x.x.l.z.x.x.v.z.z.z.l.z.x.x.z.z.z.z.x.v.",
"b.b.b.b.b.b.b.b.b.b.b.b.b.b.b.b.O X v.v.x.z.l.z.x.v.v.z.z.l.z.z.x.x.z.l.l.x.x.v."
};
