/* XPM */
static char *xpm_[] = {
/* columns rows colors chars-per-pixel */
"40 50 178 2 ",
"   c #010402",
".  c #0A0000",
"X  c #010A01",
"o  c #070C09",
"O  c #070709",
"+  c #1E0000",
"@  c #120806",
"#  c #001304",
"$  c #001A0A",
"%  c #0D1015",
"&  c #17181C",
"*  c #210001",
"=  c #290000",
"-  c #260907",
";  c #320701",
":  c #251307",
">  c #1D2A19",
",  c #252925",
"<  c #352825",
"1  c #243A2E",
"2  c #393732",
"3  c #420300",
"4  c #481814",
"5  c #431B11",
"6  c #551D16",
"7  c #631B1C",
"8  c #582718",
"9  c #74201C",
"0  c #7F221D",
"q  c #581E2C",
"w  c #482A25",
"e  c #5F2E29",
"r  c #43312D",
"t  c #4F3A35",
"y  c #5F303A",
"u  c #543A39",
"i  c #59392C",
"p  c #6C2C24",
"a  c #62262B",
"s  c #64292D",
"d  c #722723",
"f  c #742C25",
"g  c #792A28",
"h  c #6A3325",
"j  c #69342B",
"k  c #76332A",
"l  c #6C2B33",
"z  c #6A2D39",
"x  c #692637",
"c  c #75293A",
"v  c #653534",
"b  c #743231",
"n  c #2E4732",
"m  c #35423B",
"M  c #324836",
"N  c #494230",
"B  c #5E4E3F",
"V  c #3C3F44",
"C  c #5A3C46",
"Z  c #6C3C48",
"A  c #7A3443",
"S  c #733B46",
"D  c #474546",
"F  c #554845",
"G  c #5F5C49",
"H  c #494E54",
"J  c #53585E",
"K  c #65484A",
"L  c #7B4342",
"P  c #635343",
"I  c #7A534C",
"U  c #675D5A",
"Y  c #755C5F",
"T  c #4C6E5C",
"R  c #4A6650",
"E  c #666556",
"W  c #515860",
"Q  c #597A65",
"!  c #687461",
"~  c #7F797B",
"^  c #8A130F",
"/  c #95181A",
"(  c #96211A",
")  c #8B1D20",
"_  c #8A2421",
"`  c #842828",
"'  c #98312A",
"]  c #9A3734",
"[  c #B3322C",
"{  c #B63730",
"}  c #BC3735",
"|  c #BF3D3B",
" . c #A83633",
".. c #CF2F2F",
"X. c #C32D2E",
"o. c #D02D32",
"O. c #C5373D",
"+. c #C83736",
"@. c #D3393A",
"#. c #9B4B3C",
"$. c #813F40",
"%. c #803B4D",
"&. c #DD3F40",
"*. c #8A4E4D",
"=. c #9D4A45",
"-. c #924154",
";. c #A94544",
":. c #B64040",
">. c #B64A4A",
",. c #BC4745",
"<. c #A95A49",
"1. c #A04F62",
"2. c #A55063",
"3. c #C84747",
"4. c #D34141",
"5. c #D15752",
"6. c #E54142",
"7. c #79877A",
"8. c #71917C",
"9. c #8F8C7B",
"0. c #789B87",
"q. c #85958A",
"w. c #838B94",
"e. c #9A9B9F",
"r. c #B69A8E",
"t. c #BC9C8D",
"y. c #AB9190",
"u. c #BE9FA7",
"i. c #B39EA5",
"p. c #9FA7AC",
"a. c #B0B8AD",
"s. c #A2ABB2",
"d. c #B2BABD",
"f. c #C68780",
"g. c #CD9D8C",
"h. c #C79788",
"j. c #C0A997",
"k. c #CCA797",
"l. c #D3A494",
"z. c #E5A99E",
"x. c #C697A1",
"c. c #C3B1AD",
"v. c #D5B3A6",
"b. c #C6B4B0",
"n. c #8FCB82",
"m. c #91CE82",
"M. c #96D483",
"N. c #98D783",
"B. c #97D883",
"V. c #99DA83",
"C. c #9FD090",
"Z. c #A1DB8D",
"A. c #A6DA95",
"S. c #C6CEBF",
"D. c #DEC7BF",
"F. c #EAC8BC",
"G. c #F5D1BB",
"H. c #C2C5CA",
"J. c #DFCAC5",
"K. c #CED1CA",
"L. c #DDDDD5",
"P. c #FECCCC",
"I. c #FFD3C5",
"U. c #FFDACD",
"Y. c #F8D7CB",
"T. c #EFD5D6",
"R. c #FFD8D7",
"E. c #FED3DC",
"W. c #F3DADB",
"Q. c #FFE7D2",
"!. c #FEE5DD",
"~. c #F5E8DE",
"^. c #EFDFE2",
"/. c #FFDCE1",
"(. c #F8E5E4",
"). c #EFF3E2",
"_. c #F9F1E4",
"`. c #FFEFF5",
/* pixels */
"V.V.V.V.V.V.N.N.M.N.M.M.M.N.N.B.B.B.M.m.n.m.N.N.B.B.V.V.N.N.M.M.B.M.n.m.m.m.M.B.",
"V.V.V.V.V.V.N.M.N.N.M.N.N.M.N.B.V.B.m.m.n.M.M.N.V.B.B.V.N.M.M.N.B.B.m.m.n.M.M.B.",
"V.V.V.V.V.N.N.M.N.N.B.M.M.M.M.M.B.M.M.n.n.m.M.B.V.B.V.N.B.N.N.N.V.B.V.V.M.M.M.B.",
"V.V.V.V.V.V.M.N.B.B.B.M.M.m.M.M.V.M.M.m.n.M.M.M.N.N.B.V.V.B.N.N.V.V.V.V.M.B.B.B.",
"M.N.V.V.V.N.N.N.B.B.V.B.M.m.m.M.V.B.m.n.n.M.M.B.M.N.N.N.V.V.V.V.V.V.V.V.V.V.V.V.",
"M.M.N.N.N.N.M.N.B.B.B.N.M.m.M.m.M.M.M.m.m.M.M.M.N.N.N.V.V.V.V.V.V.V.V.V.V.V.V.V.",
"m.M.M.M.M.N.M.N.M.B.M.M.M.m.m.M.m.m.M.M.B.M.M.M.M.N.V.V.V.V.V.V.V.V.V.V.V.V.V.V.",
"M.m.M.N.N.N.M.N.N.M.N.M.M.M.M.m.m.M.B.B.B.B.M.B.M.N.V.V.V.V.V.V.V.V.V.V.V.V.V.V.",
"m.m.M.M.M.M.M.M.M.N.N.M.M.M.M.M.m.M.M.V.V.V.M.M.N.M.V.V.V.V.Z.V.V.V.V.V.V.V.Z.V.",
"m.m.m.m.M.M.M.M.M.N.N.m.M.N.M.m.m.m.M.V.M.A.V.M.N.N.V.V.V.V.V.V.V.V.V.V.V.V.V.V.",
"m.m.m.m.m.M.M.M.m.M.m.M.M.B.N.M.M.M.M.V.M.M.M.V.N.V.V.V.V.V.V.V.V.V.V.V.V.V.V.V.",
"m.C.m.m.m.m.M.M.m.m.m.m.M.B.B.N.N.M.N.M.M.V.M.A.V.V.V.V.V.V.V.V.V.V.V.V.V.V.V.V.",
"m.m.m.n.m.m.M.m.M.m.M.M.M.B.B.B.M.M.V.M.B.B.B.B.V.V.V.V.V.V.V.V.V.B.V.V.B.B.B.B.",
"M.M.m.n.n.m.m.m.M.M.M.M.B.M.B.B.M.V.< u v l f 7 Z.V.Z.V.V.V.V.V.V.V.V.V.B.M.M.M.",
"M.M.M.n.n.n.n.m.M.B.B.B.B.M.M.N.C F (.(.f.;.>.) ` 3 V.V.V.V.V.V.M.B.B.B.V.M.m.m.",
"M.V.M.n.m.n.n.m.M.V.B.V.V.V.V.K T.i.y.h.I.:.O.O.3.#.j V.V.V.V.V.M.M.M.B.B.M.m.n.",
"V.V.B.M.M.n.n.m.B.V.V.V.V.V.B.Z u.^.^.I.#.| @...+.>.p I V.M.Z.M.M.n.B.B.M.m.n.n.",
"V.V.V.B.M.M.n.M.B.V.V.V.V.M.r (.C U (.Q.<.[ &.6.X.3.=.j M.M.M.m.n.M.m.M.M.m.n.n.",
"V.V.V.V.M.M.M.M.B.V.V.V.V.V.Z E.Y L.~.G.#.{ @...4. .` L N.N.M.m.n.n.n.M.m.m.m.n.",
"B.B.V.V.B.M.B.B.B.V.V.V.q A x x.T.F _.U.#.5.+.X.{ ;.k s m.m.N.m.n.n.n.m.m.m.n.n.",
"B.B.B.V.V.V.V.V.V.V.V.y %.1.c z /.^.!.U.=.:.} 3./ 0 b s N.N.m.m.m.n.n.n.n.n.n.m.",
"B.M.V.V.V.V.V.V.V.V.V.- z -.2.c E.`.P.P.` / / ^ ' a ] S N.m.M.M.m.n.n.n.n.m.m.m.",
"M.V.M.V.V.V.V.V.V.B.B.B.* z A l j a R.d g )  ._ 9 k z * N.M.M.M.B.m.M.n.n.m.B.B.",
"N.M.M.M.V.V.V.B.V.N.V.B.B.* + ; j j h k f d d p *.= + N.N.N.N.N.B.B.M.n.n.M.B.V.",
"M.N.M.V.N.V.V.V.V.C.V.V.V.V.+ i ; g.g.h z.6 6 5 + K B O N.N.N.V.V.V.B.M.M.M.V.V.",
"N.M.V.M.V.N.N.N.V.V.V.V.V.V.t v.= G.l.8 h.h.5 w u r @ . > V.V.V.V.V.V.B.M.M.V.V.",
"M.N.V.V.V.V.N.N.V.V.V.B.B.B.b.J.Y.F.I.v.k.t.w : < 2 > V.V.V.V.V.V.V.V.V.B.V.V.V.",
"V.V.V.V.N.V.M.N.B.V.V.B.B.B.N.b.J.W.r.t.j.P N   X , X X V.V.V.V.V.V.V.V.V.V.V.V.",
"V.V.N.N.M.N.M.N.V.V.V.B.N.m.M.m.M.U F B . P ! ! 7.# V.V.V.V.N.V.V.V.V.V.V.V.V.V.",
"V.M.N.N.M.N.N.N.V.N.C.B.M.m.m.M.M.~ N E 9.! n R 8.$ V.N.N.N.N.N.M.M.V.V.V.V.V.V.",
"M.M.N.N.N.N.N.N.V.N.N.N.m.m.m.m.m.H 2 L.).X n Q 0.# V.N.N.N.M.M.M.V.V.V.V.V.B.V.",
"M.M.N.M.N.N.N.V.B.N.N.N.m.m.m.m.O W 1 K.S.X M T T $ V.N.M.M.M.N.M.V.V.V.V.V.B.M.",
"M.m.M.M.B.B.V.V.B.B.M.N.M.e.H.m.w.w.p.  a.q.# # X V.V.V.N.N.M.M.N.N.N.N.N.N.N.M.",
"m.m.m.N.B.B.M.V.V.B.M.M.M.& V H p.s.d.X 7.q.X 1 X V.V.V.M.N.N.M.M.M.M.M.M.N.M.M.",
"m.m.N.N.M.M.M.M.N.N.N.N.M.m.O W H J     O   m m X V.V.B.N.M.M.N.N.M.M.N.M.V.V.M.",
"m.m.M.M.M.M.n.m.M.M.N.N.M.M.M.  % M.M.V.M.V.O O B.V.V.B.N.M.N.N.N.M.N.N.N.B.V.M.",
"m.m.M.M.M.m.n.M.M.M.N.N.N.M.M.M.N.M.N.N.B.N.B.N.V.V.V.N.M.M.V.M.N.N.M.V.N.V.V.M.",
"m.m.M.m.M.m.m.M.N.M.N.N.N.M.M.M.M.N.N.N.V.N.B.B.V.B.V.N.N.N.M.N.N.N.V.M.N.N.V.V.",
"M.m.M.M.m.M.m.M.M.N.N.N.N.M.N.M.M.N.N.N.N.N.V.V.V.V.N.N.M.V.M.M.N.V.V.V.V.V.V.M.",
"m.M.m.m.m.C.M.M.B.B.V.N.N.N.N.M.N.M.B.N.B.V.V.V.M.N.M.N.N.M.N.V.V.V.V.V.V.M.M.V.",
"M.M.M.m.B.V.V.V.B.B.V.N.N.N.M.N.N.N.m.N.N.V.V.N.N.N.M.M.M.M.B.B.B.B.V.V.V.V.V.B.",
"M.M.M.B.B.V.V.V.B.B.N.V.B.V.M.N.M.N.N.N.N.N.V.B.M.M.m.m.M.M.M.M.M.M.B.V.V.V.V.B.",
"M.M.V.B.V.V.V.V.V.N.N.B.V.V.V.V.N.M.N.M.N.N.V.B.M.m.m.M.M.M.M.n.n.M.M.V.V.V.B.V.",
"M.B.V.V.V.V.V.V.B.V.N.V.V.V.V.V.N.M.N.N.N.N.V.B.M.m.n.n.M.m.M.m.n.n.M.V.V.V.B.M.",
"B.B.V.V.V.V.V.V.V.V.V.V.V.V.V.V.V.V.B.M.M.B.B.M.n.n.n.n.m.m.m.n.n.m.B.B.B.B.M.M.",
"B.V.V.V.V.V.V.V.V.V.V.Z.V.V.V.V.V.V.N.B.M.M.B.M.M.n.n.n.n.n.m.n.n.n.M.B.M.M.M.M.",
"V.V.V.V.V.V.V.V.V.V.V.V.V.V.V.V.V.V.V.N.M.M.M.m.m.m.M.n.n.n.n.n.n.n.m.B.M.M.m.m.",
"V.V.V.V.V.V.V.V.V.V.V.V.V.V.V.V.V.N.N.M.M.M.M.m.M.M.m.n.n.n.n.m.m.M.n.M.M.m.M.M.",
"V.V.V.V.V.V.V.V.V.V.V.V.V.V.V.V.V.V.V.V.V.M.n.m.B.B.M.m.m.m.m.m.M.M.m.m.m.M.M.M.",
"V.V.V.V.V.V.V.V.V.V.V.V.V.V.V.V.V.V.V.V.B.M.n.M.m.B.B.m.m.m.m.n.M.M.m.n.n.m.M.B."
};
