/* XPM */
static char *xpm_[] = {
/* columns rows colors chars-per-pixel */
"40 50 184 2 ",
"   c #030301",
".  c #0A0E00",
"X  c #020609",
"o  c #040C0C",
"O  c #070700",
"+  c #140002",
"@  c #1F0000",
"#  c #011204",
"$  c #031808",
"%  c #120B13",
"&  c #001F18",
"*  c #121E1A",
"=  c #260000",
"-  c #290000",
";  c #21000D",
":  c #360001",
">  c #3E0302",
",  c #30060A",
"<  c #241100",
"1  c #02220A",
"2  c #1F2710",
"3  c #232210",
"4  c #1F342D",
"5  c #212B2C",
"6  c #3A2522",
"7  c #3E3820",
"8  c #243D37",
"9  c #30392F",
"0  c #431B0F",
"q  c #71161B",
"w  c #5A231C",
"e  c #55261C",
"r  c #6A231E",
"t  c #771722",
"y  c #442C20",
"u  c #5A2528",
"i  c #5B392F",
"p  c #542E39",
"a  c #4B3832",
"s  c #5E323D",
"d  c #54363B",
"f  c #6D2327",
"g  c #602829",
"h  c #692D2D",
"j  c #642126",
"k  c #7E2D22",
"l  c #742729",
"z  c #6E2A31",
"x  c #6D323C",
"c  c #6A3D3F",
"v  c #6C3B36",
"b  c #763336",
"n  c #7A313D",
"m  c #773539",
"M  c #36453C",
"N  c #58513B",
"B  c #7C413D",
"V  c #393A4B",
"C  c #463C47",
"Z  c #763742",
"A  c #2B4C46",
"S  c #354745",
"D  c #305045",
"F  c #3A5455",
"G  c #3B6D48",
"H  c #4B4D4B",
"J  c #434B48",
"K  c #5F4840",
"L  c #554848",
"P  c #5A5849",
"I  c #514C53",
"U  c #445751",
"Y  c #5B5556",
"T  c #665746",
"R  c #644555",
"E  c #4A6441",
"W  c #52754C",
"Q  c #5C704A",
"!  c #5F6154",
"~  c #5B795D",
"^  c #686F50",
"/  c #676B50",
"(  c #677355",
")  c #484D60",
"_  c #9A1416",
"`  c #97151D",
"'  c #B91D1E",
"]  c #861E29",
"[  c #A01F24",
"{  c #8C2528",
"}  c #942727",
"|  c #89342F",
" . c #962F30",
".. c #843138",
"X. c #B2362A",
"o. c #AF3937",
"O. c #BC3D36",
"+. c #CD221B",
"@. c #DC2D18",
"#. c #DE2D23",
"$. c #C73427",
"%. c #DC3B2C",
"&. c #D4392A",
"*. c #CC3B36",
"=. c #C23C30",
"-. c #DE3A38",
";. c #E33A27",
":. c #8F423A",
">. c #92433E",
",. c #A5443E",
"<. c #BD413F",
"1. c #EA412C",
"2. c #9E4B4A",
"3. c #904444",
"4. c #9F4D59",
"5. c #835450",
"6. c #9C505C",
"7. c #A84144",
"8. c #BE4846",
"9. c #A35257",
"0. c #885461",
"q. c #80606F",
"w. c #B96C62",
"e. c #C54C41",
"r. c #D84C4B",
"t. c #56825B",
"y. c #729369",
"u. c #A58E7C",
"i. c #82A177",
"p. c #758181",
"a. c #7F9892",
"s. c #878989",
"d. c #9A8083",
"f. c #BA9995",
"g. c #AB9995",
"h. c #8CA79E",
"j. c #93A29F",
"k. c #9BA485",
"l. c #A9AD96",
"z. c #8AA7AD",
"x. c #93AFA1",
"c. c #93B0AE",
"v. c #A8B3BC",
"b. c #A7A6B4",
"n. c #D4938F",
"m. c #C58A90",
"M. c #D79698",
"N. c #E09A9A",
"B. c #C7A397",
"V. c #CC9AA6",
"C. c #E59DA0",
"Z. c #CCA5A0",
"A. c #DCA5A2",
"S. c #C1B4AC",
"D. c #DCB6A9",
"F. c #F4BEBE",
"G. c #8FCB82",
"H. c #91CE82",
"J. c #95D483",
"K. c #98D783",
"L. c #97D883",
"P. c #99DA83",
"I. c #ABDB95",
"U. c #BEC6C6",
"Y. c #C1C6CA",
"T. c #DFC7C5",
"R. c #D6D9DE",
"E. c #FDCBCB",
"W. c #F5CFDC",
"Q. c #FFD2D4",
"!. c #F4DBD5",
"~. c #FFDFD7",
"^. c #FDDCDC",
"/. c #F9D4DD",
"(. c #FDDFEA",
"). c #FFDCE1",
"_. c #D7EEF4",
"`. c #FFE3E2",
"'. c #FCEAE7",
"]. c #FEEAED",
"[. c #E5F0EC",
"{. c #FFF2ED",
"}. c #FFEBF8",
"|. c #EDF7F6",
/* pixels */
"P.P.P.P.P.P.K.J.K.K.J.K.J.K.P.P.P.L.J.G.G.H.J.K.P.P.P.P.J.J.K.K.L.H.H.H.G.H.J.J.",
"P.P.P.P.P.P.J.K.J.K.K.J.J.J.J.P.P.J.J.H.G.J.J.K.P.L.L.P.J.K.K.J.J.L.J.H.H.J.J.P.",
"P.P.P.P.P.K.K.K.L.J.J.L.J.J.J.J.L.J.J.G.G.H.J.L.L.P.P.K.P.J.J.K.P.P.P.P.H.J.J.J.",
"P.P.P.P.P.K.K.J.P.L.L.J.J.H.J.J.P.J.J.G.G.J.J.L.J.P.K.P.K.P.P.K.P.P.P.P.L.P.P.P.",
"K.K.K.P.P.K.K.K.P.L.L.L.J.G.G.J.P.L.H.H.H.H.J.J.J.K.K.P.P.P.P.P.P.P.P.P.P.P.P.P.",
"J.J.K.K.K.K.K.J.P.P.L.J.J.H.J.J.J.J.J.H.J.J.J.J.J.J.K.P.P.P.P.P.P.P.P.P.P.P.P.P.",
"H.J.J.K.K.J.J.K.L.J.J.J.J.J.H.H.H.J.J.J.J.J.L.J.K.J.K.P.P.P.P.P.P.P.P.P.P.P.P.P.",
"J.H.J.K.K.K.J.K.J.J.J.J.J.J.J.J.H.H.J.L.L.J.L.L.J.K.P.P.P.P.P.P.P.P.P.P.P.P.P.P.",
"H.H.H.K.J.K.J.J.J.J.J.J.J.J.J.H.H.H.J.K.P.K.J.K.K.K.P.P.P.P.P.P.P.P.P.P.P.P.P.P.",
"H.H.H.J.J.J.K.J.J.J.J.J.J.J.J.J.H.J.J.P.K.K.J.K.K.K.P.P.P.P.P.P.P.P.P.P.P.P.P.P.",
"H.G.H.H.H.J.J.J.J.H.H.J.J.L.L.J.J.J.J.K.K.K.J.K.P.P.P.P.P.P.P.P.P.P.P.P.P.P.P.P.",
"H.G.G.H.H.H.J.J.H.H.H.H.J.L.L.L.J.J.J.J.K.K.K.K.P.P.P.P.P.P.P.P.P.P.P.P.P.P.P.P.",
"H.H.G.G.G.H.H.H.J.H.J.J.J.L.L.L.K.K.J.K.P.P.P.P.P.P.P.P.P.P.P.P.L.P.P.P.L.L.L.L.",
"J.J.H.G.G.G.H.6 x c u v e I.J.L.P.L.P.J.P.P.P.P.P.P.P.P.P.P.P.P.L.L.P.P.L.J.J.H.",
"J.J.J.G.G.K a !.^.M.3.2.k k > L.P.P.J.K.P.P.P.P.P.P.P.P.P.P.P.P.J.L.L.L.L.J.H.H.",
"J.L.J.G.L '.g.f.m./.7.8.O.e.,.r P.P.P.P.P.P.P.P.P.P.P.P.P.P.P.P.J.L.L.L.L.J.H.H.",
"P.P.J.J.d d.).].Q.2.o.*.&.$.X.| c P.P.P.P.P.P.P.P.P.K.K.K.J.K.J.H.J.J.J.L.H.G.G.",
"P.P.K.d (.q.I W.Q.:.e.$.1.;.=.,.u P.P.P.P.P.P.P.P.P.J.J.J.J.J.H.H.H.H.J.J.H.G.G.",
"L.P.J.s W.C }.].~.w.X.&.@.;.=.} h P.P.P.P.P.P.P.K.J.J.J.J.J.H.H.G.H.G.J.J.H.G.G.",
"J.u Z Z V.(.L '.E.>.O.-.#.+.r.{ m P.P.P.P.P.P.K.J.J.H.J.J.J.J.H.G.G.G.H.H.H.G.G.",
"p m 6.z u /.'.{.`.9.<.*.-.' ` t c P.P.P.P.P.P.K.J.H.H.J.J.J.J.H.H.G.G.G.G.G.H.H.",
", j 4.4.b `.!.!.E.l } _ _ [ ] n c P.P.P.P.I.P.K.J.H.J.J.J.J.J.H.H.H.G.G.G.H.H.H.",
"J.: n l b u i ~.h ..{ {  .q Z 0.@ P.P.P.P.P.P.K.J.K.J.J.J.J.J.J.L.H.H.G.G.H.J.L.",
"K.J.= > > B w v f ..r l h 5.+ + P.P.P.P.P.P.K.K.K.K.K.K.K.J.J.P.L.L.J.H.H.H.P.P.",
"K.J.K.@ 5.: n.N.r M.w 0 y + H Y % J.L.K.L.J.J.J.K.P.P.P.P.K.K.P.P.P.L.H.J.J.P.P.",
"K.K.J.K Z.- Q.C.r N.D.< 2 P J X X X K.J.J.J.H.J.K.P.P.P.P.P.P.P.P.P.L.L.L.L.P.P.",
"J.K.P.S.!.^.F.E.N.B.u.y 2 9 * 4 H.H.J.J.J.J.H.H.J.L.P.P.P.P.P.P.P.P.P.P.L.P.P.P.",
"P.K.P.P.g.T.^.f.B.l.T N .   9 X o H.H.J.J.H.H.J.K.L.P.P.P.P.P.P.P.P.P.P.P.P.P.P.",
"P.K.K.K.K.L Y T T K P ^ / . J.H.H.H.H.H.H.J.J.J.K.P.P.P.P.K.K.K.L.P.L.P.P.P.P.P.",
"P.K.K.J.K.s.J H ! . ( y.k.l.  J.J.J.H.H.H.J.L.L.P.P.P.P.K.K.K.K.J.L.P.P.P.P.P.P.",
"P.P.K.K.  V |.[.M $ W i.Q ( X H.J.K.H.H.H.J.P.P.I.L.P.J.K.J.K.J.L.J.P.L.P.P.L.L.",
"J.J.K.K.o X Y.U.M 1 t.y.W E o H.J.K.H.H.H.J.P.P.P.P.P.K.K.K.J.K.J.L.L.P.P.P.L.J.",
"H.H.J.M o p.R.v.x.x.$ G t.~ $ J.J.J.H.H.H.J.L.P.P.P.P.P.J.K.K.J.K.K.J.K.K.K.K.J.",
"H.H.U h.A a.s.I b.v.c.& o $ H.J.J.J.J.H.J.J.P.P.P.P.P.P.K.J.J.K.J.K.K.J.J.K.J.J.",
"H.H.4 A D M H C V ) v.z.F S J.J.J.J.J.J.J.L.P.P.P.P.P.P.K.K.K.K.J.J.J.J.J.K.P.J.",
"H.H.J.D S H.H.J.H.V _.F A J.J.J.K.J.J.J.J.L.J.P.P.P.L.P.J.K.J.J.K.K.K.K.K.L.P.J.",
"H.H.J.J.J.H.H.H.J.J.V U J.J.J.J.J.K.J.K.J.P.J.P.P.L.P.K.J.J.J.K.K.K.J.P.K.K.P.L.",
"J.H.J.H.J.H.H.J.L.J.J.P.J.J.J.J.K.K.P.P.P.P.J.K.P.P.P.P.K.K.K.J.J.K.P.J.K.P.P.L.",
"H.H.J.J.H.J.H.J.J.L.K.P.P.J.J.J.K.J.K.K.P.P.P.P.L.P.K.K.J.K.K.P.P.P.P.P.P.K.K.J.",
"J.H.H.H.H.J.J.J.L.P.K.K.J.J.J.J.J.K.J.K.K.P.P.P.K.K.J.J.K.J.J.P.P.P.P.P.L.P.J.P.",
"J.J.H.H.L.P.P.P.P.L.P.K.P.J.K.J.J.K.J.K.K.K.P.P.K.J.J.J.L.J.J.L.L.P.P.P.P.P.P.L.",
"J.L.L.L.L.P.P.P.P.P.K.P.K.P.K.P.K.J.J.K.K.P.P.L.J.J.H.J.J.J.J.L.J.J.L.L.P.P.L.P.",
"J.J.L.L.L.P.P.P.J.K.K.J.L.L.P.K.K.K.J.K.J.P.P.J.J.H.H.J.J.J.J.H.H.H.L.L.P.P.L.L.",
"J.L.P.P.P.P.P.P.P.P.P.P.L.P.L.P.K.J.K.J.K.P.P.J.J.G.G.G.J.G.H.H.G.H.J.P.P.P.L.L.",
"L.L.P.P.P.P.P.P.P.P.P.P.L.P.P.P.P.L.L.P.J.L.L.J.H.G.G.G.H.H.H.G.G.H.J.L.L.J.J.J.",
"P.P.P.P.P.P.P.P.P.P.P.P.P.P.P.P.P.P.K.J.J.J.J.J.J.G.G.G.G.G.H.G.G.H.J.L.L.J.J.J.",
"P.P.P.P.P.P.P.P.P.P.P.P.P.P.P.P.P.P.L.P.J.J.J.J.H.H.H.G.G.G.G.G.H.H.J.J.J.H.J.H.",
"P.P.P.P.P.P.P.P.P.P.P.P.P.P.P.P.P.P.K.J.J.J.H.J.J.H.J.H.G.G.G.H.H.H.H.J.J.J.H.J.",
"P.P.P.P.P.P.P.P.P.P.P.P.P.P.P.P.P.P.P.P.L.H.H.H.J.L.J.H.H.H.H.H.J.J.H.H.H.J.J.J.",
"P.P.P.P.P.P.P.P.P.P.P.P.P.P.P.P.P.P.P.P.L.J.G.H.J.L.J.J.G.H.H.H.J.H.H.H.H.H.J.L."
};
