/* XPM */
static char *xpm_[] = {
/* columns rows colors chars-per-pixel */
"40 50 184 2 ",
"   c #030303",
".  c #0C0100",
"X  c #030A06",
"o  c #00050A",
"O  c #020A0A",
"+  c #0E090D",
"@  c #140201",
"#  c #190203",
"$  c #170708",
"%  c #100D08",
"&  c #1E1005",
"*  c #020D12",
"=  c #190A11",
"-  c #230000",
";  c #21030E",
":  c #26060A",
">  c #340200",
",  c #300806",
"<  c #2B160C",
"1  c #241209",
"2  c #2C1F16",
"3  c #351E16",
"4  c #0B211F",
"5  c #1E312D",
"6  c #1B2F38",
"7  c #1F3334",
"8  c #17292B",
"9  c #212725",
"0  c #26322D",
"q  c #3C312B",
"w  c #430800",
"e  c #5E1310",
"r  c #4A211F",
"t  c #5B2319",
"y  c #422F28",
"u  c #59322A",
"i  c #522232",
"p  c #563F35",
"a  c #493536",
"s  c #652C21",
"d  c #78272E",
"f  c #69362B",
"g  c #773629",
"h  c #653B3B",
"j  c #7A373C",
"k  c #7B3A34",
"l  c #584338",
"z  c #61463B",
"x  c #2F4344",
"c  c #3D4C4C",
"v  c #374A4E",
"b  c #384950",
"n  c #3E5259",
"m  c #40484A",
"M  c #5C4946",
"N  c #584343",
"B  c #43544E",
"V  c #5A504F",
"C  c #5A5A59",
"Z  c #644A46",
"A  c #724A46",
"S  c #63534B",
"D  c #70514E",
"F  c #6C4F51",
"G  c #7D4755",
"H  c #65585A",
"J  c #795456",
"K  c #565E60",
"L  c #765961",
"P  c #5D6266",
"I  c #616564",
"U  c #71706E",
"Y  c #787A79",
"T  c #84151E",
"R  c #831724",
"E  c #883238",
"W  c #87493D",
"Q  c #A93A4A",
"!  c #8A4541",
"~  c #8C4A46",
"^  c #844C4A",
"/  c #904F49",
"(  c #974848",
")  c #945148",
"_  c #99574B",
"`  c #865756",
"'  c #9C5752",
"]  c #9D5958",
"[  c #A5454E",
"{  c #A45A4F",
"}  c #AC4351",
"|  c #B35053",
" . c #B35156",
".. c #A96155",
"X. c #905664",
"o. c #996361",
"O. c #A46367",
"+. c #A47074",
"@. c #72817C",
"#. c #C5877A",
"$. c #677A80",
"%. c #7E8482",
"&. c #7E9094",
"*. c #858A89",
"=. c #908788",
"-. c #91968F",
";. c #8F9F9F",
":. c #80919B",
">. c #969C9B",
",. c #979C95",
"<. c #A79693",
"1. c #B89A91",
"2. c #A2A19F",
"3. c #B8A197",
"4. c #8D9EA6",
"5. c #979EA8",
"6. c #9498A1",
"7. c #BD9FA1",
"8. c #9AA1AB",
"9. c #ACA4A1",
"0. c #A7B6AF",
"q. c #B1B0AE",
"w. c #A6ABB5",
"e. c #A4B1B3",
"r. c #ADB4BB",
"t. c #B2B5B1",
"y. c #B4A9A5",
"u. c #D29D8D",
"i. c #DB8E98",
"p. c #C89292",
"a. c #C8A798",
"s. c #C2A9A3",
"d. c #CCADA8",
"f. c #DEAEA4",
"g. c #CDB3A6",
"h. c #C9B3AC",
"j. c #8FCB82",
"k. c #91CE82",
"l. c #95D483",
"z. c #98D783",
"x. c #97D883",
"c. c #99DA83",
"v. c #E5C6B6",
"b. c #EEC3B2",
"n. c #F9CDBD",
"m. c #AFB5C1",
"M. c #B1BFC8",
"N. c #B9BDC6",
"B. c #D5C7C3",
"V. c #C2D1CC",
"C. c #DFCFD0",
"Z. c #DAD6D6",
"A. c #E6CCC7",
"S. c #F6C0C0",
"D. c #FDCCCE",
"F. c #EED3CA",
"G. c #F2D9CD",
"H. c #FADDCF",
"J. c #FFCFD2",
"K. c #FFCED8",
"L. c #F2CFD5",
"P. c #EED7D1",
"I. c #EADADE",
"U. c #E9D6D4",
"Y. c #FED6DE",
"T. c #FFDCDB",
"R. c #FCD4D4",
"E. c #EAE0DF",
"W. c #FCE0D3",
"Q. c #FFEADA",
"!. c #FEDFE7",
"~. c #FCDAE4",
"^. c #DCE2E3",
"/. c #DBE8E1",
"(. c #E6E6E6",
"). c #FFE5E6",
"_. c #FFE2EC",
"`. c #F3EAEA",
"'. c #FDEBED",
"]. c #F7E9E7",
"[. c #F8EFF0",
"{. c #FFF5F8",
"}. c #FFFBFC",
"|. c #FDF1F1",
/* pixels */
"c.c.c.c.c.c.z.z.z.l.z.l.l.z.l.x.j d E E e g f z.c.c.c.z.z.z.z.z.l.l.k.k.k.k.l.z.",
"c.c.c.c.c.c.z.l.z.l.l.z.z.l.r j [ [ | T | ../ t h c.c.c.z.z.l.z.x.x.k.k.k.l.z.z.",
"c.c.c.c.c.z.z.l.l.z.x.l.l.y ` O.[ Q Q R [ ~ ^ o.X.i z.z.z.z.z.z.c.c.c.c.k.l.z.x.",
"c.c.c.c.c.c.l.z.c.x.x.l.l.@ D D.~.K.Y.i.Y.T.T.K.^ ; z.z.z.z.z.z.c.c.c.c.x.x.x.x.",
"l.z.c.c.c.z.z.z.c.x.x.x.  H {.'.L.C.{.<.C.[.`.`.!.L $ x.c.c.c.c.c.c.c.c.c.c.c.c.",
"l.l.z.z.z.z.z.l.c.x.x.l.= C I.I.[.}.Z.C P ^.(.[.I.L . x.c.c.c.c.c.c.c.c.c.c.c.c.",
"k.l.l.l.l.z.l.z.z.z.z.z.; _.!.~.'.Z.C 2.U.}.`.I.`.(.. x.c.c.c.c.c.c.c.c.c.c.c.c.",
"l.k.l.z.z.z.l.z.l.z.l.; # !.Y.Y.).Z M N N F L._.[.~.$ $ c.c.c.c.c.c.c.c.c.c.c.c.",
"k.k.k.l.l.l.l.l.z.z.. N # - ` +.J.Y.D.p.).n.).^ J $ @ a % c.c.c.c.c.c.c.c.c.c.c.",
"k.k.k.l.l.l.l.l.l.k.  . 1., ^ ^ ] W { ~ ! ' / ` D : 7.&   c.c.c.c.c.c.c.c.c.c.c.",
"j.j.k.k.l.l.l.l.l.k.j.. d.z f k ) ) { ..W _ W W u Z s.@ c.c.c.c.c.c.c.c.c.c.c.c.",
"k.k.k.k.j.k.l.l.j.k.l.@ 3 h f.s #.g k > w e u.f a.z 1 1 c.c.c.c.c.c.c.c.c.c.c.c.",
"k.k.j.j.j.l.l.k.l.l.k.X 2 1 a.a.Q.> n.b.n.# H.1.g.< 3 . c.c.c.c.x.x.c.c.x.x.l.l.",
"l.l.j.j.j.j.j.l.l.l.l.l.. & l g.v.v.v.H.n.H.G.3.l . @ c.c.c.c.c.x.x.c.c.x.l.l.l.",
"l.l.l.j.j.j.j.k.l.x.x.x.c.z.S p h.F.W.s.G.B.h.V U.. c.c.c.c.c.c.l.x.x.x.x.x.k.k.",
"l.c.l.j.j.j.j.k.l.l.x.x.c.z.q Q.@ S <.y.2.V   *.B.9.. c.c.c.c.c.l.x.x.x.l.l.k.j.",
"c.x.x.x.l.j.j.k.c.c.c.c.c.  t.-.,.0 X 9 * K c *.r.q.*.U z.l.z.l.k.l.l.l.l.l.j.j.",
"x.c.x.x.l.l.k.l.x.c.c.c.c.X /.0.@.B 0 7 x b $.* m ,.Y   l.l.l.k.j.k.k.l.l.k.j.j.",
"c.c.c.x.l.l.l.k.x.c.c.c.O *.V.O 5 c 4 7 * n 6 * *     l.z.k.k.k.j.k.k.k.k.k.k.j.",
"c.c.x.x.x.l.x.c.x.c.c.c.% @.5.* 0.;.8 &.b 4.&.M.o l.k.l.z.z.z.k.j.k.k.k.k.k.j.j.",
"x.x.x.x.c.c.c.c.c.c.c.c.c.= * z.* P r.w.w.r.m.5.o k.k.k.k.k.z.k.k.k.j.j.j.j.k.k.",
"x.x.x.x.c.c.c.c.c.c.x.c.z.z.l.z.c.  X * o >.w.N.o k.l.l.z.z.z.k.k.j.j.j.j.j.k.k.",
"z.z.c.x.c.c.c.c.x.x.c.c.c.c.c.c.c.c.c.c.o r.e.  z.l.l.l.l.l.z.l.l.l.k.j.k.k.x.x.",
"z.z.z.c.c.c.c.x.x.x.x.x.c.c.c.c.c.c.c.c.o (.^.O z.z.z.z.z.z.z.l.x.x.l.j.j.l.x.c.",
"z.l.z.z.x.c.x.c.z.z.c.z.c.c.c.z.z.z.z.z.z.+ o z.z.c.c.c.c.z.z.c.c.c.z.k.k.x.c.c.",
"l.z.x.c.c.z.z.c.z.c.c.c.c.c.l.l.l.l.l.z.l.l.k.l.l.c.c.c.c.c.c.c.c.c.x.x.x.x.c.c.",
"z.z.z.x.x.z.z.z.z.c.c.c.c.c.z.l.k.k.l.l.l.k.j.k.l.c.c.c.c.c.c.c.c.c.c.c.x.c.c.c.",
"z.z.x.x.c.z.z.z.c.c.c.c.c.z.l.l.k.k.k.l.l.k.j.l.l.c.c.c.c.c.c.c.c.c.c.c.x.c.c.c.",
"c.c.z.z.z.z.l.z.c.c.z.z.l.l.l.k.k.k.k.k.k.l.l.z.c.c.c.c.c.c.z.z.x.c.x.c.c.c.c.c.",
"c.c.z.z.z.z.l.z.c.c.z.z.l.k.k.l.l.l.l.k.k.l.z.x.c.c.c.z.z.z.z.z.z.x.c.c.c.c.c.x.",
"z.z.l.l.z.z.z.z.c.c.l.l.k.j.k.k.l.l.k.j.k.z.c.c.c.c.c.z.z.l.z.z.z.z.x.c.c.c.x.x.",
"l.l.l.l.z.z.z.c.c.c.l.l.l.k.k.k.l.l.k.k.k.z.c.c.c.c.z.z.z.z.l.z.x.x.x.x.c.c.x.l.",
"j.l.l.l.z.c.c.c.c.z.l.z.l.j.k.l.l.l.k.k.k.l.c.c.c.c.c.c.z.z.l.z.l.z.l.z.z.z.l.l.",
"j.j.l.z.z.z.l.c.c.c.l.l.l.k.j.l.l.l.l.k.k.l.c.c.c.c.c.c.l.z.z.l.l.z.l.l.z.z.l.l.",
"j.k.l.l.l.l.l.l.z.z.l.z.l.k.l.l.z.l.l.l.l.c.c.c.c.c.c.c.z.l.l.z.z.l.z.l.z.z.x.l.",
"j.j.l.z.l.k.k.l.l.l.z.l.z.l.l.l.l.l.l.c.x.l.l.c.c.c.c.x.z.l.z.z.z.l.z.z.z.z.c.x.",
"k.k.l.l.l.k.j.k.l.l.z.z.l.l.l.l.l.z.z.l.l.c.l.c.x.c.c.z.z.l.z.l.z.z.l.c.z.c.c.l.",
"k.l.k.l.k.l.l.l.l.l.z.z.z.l.l.z.z.l.z.c.c.c.l.x.x.c.c.z.l.z.l.c.z.z.c.l.z.z.c.x.",
"k.k.k.l.l.l.k.l.z.z.x.z.z.l.z.l.z.z.z.z.c.c.c.c.c.c.c.l.z.z.l.l.z.c.c.c.c.z.c.c.",
"l.l.k.k.k.k.l.l.x.x.x.z.z.z.z.l.l.z.l.z.z.c.c.c.c.l.l.z.z.l.z.c.c.c.c.c.x.c.l.l.",
"l.l.k.k.c.c.c.c.x.x.c.z.c.z.z.z.z.l.z.z.z.z.c.c.l.l.l.l.l.x.x.x.x.x.x.x.c.c.c.x.",
"l.x.x.x.z.c.c.c.x.x.x.z.z.z.z.z.z.l.l.l.z.c.c.c.l.l.k.l.l.l.l.x.l.x.x.x.c.c.x.x.",
"l.l.c.x.c.c.c.c.x.z.x.z.c.c.c.z.l.z.l.z.l.c.c.l.l.k.k.l.l.l.k.k.k.l.l.x.c.c.x.x.",
"l.z.c.c.c.c.c.c.c.z.c.c.c.c.c.c.z.z.z.l.z.c.c.l.l.k.j.k.j.l.k.k.j.j.x.c.c.c.x.l.",
"z.z.c.c.c.c.c.c.c.c.c.c.c.c.c.c.c.c.l.z.l.x.x.l.j.j.j.j.k.k.k.j.j.k.l.x.x.x.l.l.",
"c.c.c.c.c.c.c.c.c.c.c.c.c.c.c.c.c.c.c.l.l.l.l.l.l.j.j.j.j.j.k.j.j.k.l.x.l.l.l.l.",
"c.c.c.c.c.c.c.c.c.c.c.c.c.c.c.c.c.c.c.z.x.l.l.k.k.k.l.j.j.j.j.j.k.k.k.x.l.l.k.k.",
"c.c.c.c.c.c.c.c.c.c.c.c.c.c.c.c.c.c.z.l.l.l.l.k.l.l.k.j.j.j.j.k.k.k.k.l.l.k.l.l.",
"c.c.c.c.c.c.c.c.c.c.c.c.c.c.c.c.c.c.c.c.c.k.k.k.l.x.x.k.j.j.j.k.l.l.k.k.k.l.l.l.",
"c.c.c.c.c.c.c.c.c.c.c.c.c.c.c.c.c.c.c.c.x.l.k.k.l.x.x.k.j.k.j.x.l.k.k.k.k.k.l.x."
};
