/* XPM */
static char *_8f061b6add943bebef80dbc8da46ba17tmkMxatoNiy0Xhz[] = {
/* columns rows colors chars-per-pixel */
"40 50 81 1 ",
"  c #8ECA82",
". c #8ECB82",
"X c #8FCB82",
"o c #8FCC82",
"O c #8FCD82",
"+ c #90CC82",
"@ c #90CD82",
"# c #91CD82",
"$ c #90CE82",
"% c #91CE82",
"& c #91CF82",
"* c #91CE83",
"= c #91CF83",
"- c #92CE82",
"; c #92CF82",
": c #92CF83",
"> c #91D082",
", c #92D082",
"< c #93D082",
"1 c #92D182",
"2 c #93D182",
"3 c #92D083",
"4 c #93D083",
"5 c #92D183",
"6 c #93D183",
"7 c #93D282",
"8 c #92D283",
"9 c #93D283",
"0 c #93D383",
"q c #94D083",
"w c #94D183",
"e c #94D282",
"r c #94D382",
"t c #94D283",
"y c #95D283",
"u c #94D383",
"i c #95D383",
"p c #96D383",
"a c #94D482",
"s c #95D582",
"d c #94D483",
"f c #95D483",
"g c #94D583",
"h c #95D583",
"j c #96D483",
"k c #97D483",
"l c #96D583",
"z c #97D583",
"x c #95D683",
"c c #95D783",
"v c #96D683",
"b c #97D683",
"n c #96D783",
"m c #97D783",
"M c #96D584",
"N c #97D684",
"B c #98D683",
"V c #98D783",
"C c #98D784",
"Z c #96D883",
"A c #97D883",
"S c #97D983",
"D c #97DA83",
"F c #98D883",
"G c #98D983",
"H c #99D983",
"J c #98DA83",
"K c #99DA83",
"L c #98DB83",
"P c #99DB83",
"I c #99DC83",
"U c #98D884",
"Y c #99D884",
"T c #98D984",
"R c #99D984",
"E c #9AD984",
"W c #98DA84",
"Q c #99DA84",
"! c #99DB84",
"~ c #9ADA84",
"^ c #9ADB84",
/* pixels */
"IIIPPVbbbbbbbbVPPS2&&2iVPPPPbbbbbi&&&&ib",
"PPIPPVbbbbbbbbbPPS2&&2iVPPPPbbbbbi2&&2bV",
"PPPPPVbbbbbbbibbPS2&&2bbVPPPPbbbbbi22ibP",
"PPPPPVbbPSSbi22bPS2&&2bbbVVPPPPbbbbbbbPP",
"VV~~PVbVPSSb2&&bPS2oo2bbbbVPPPPPbVP~~III",
"iibPVVbbPSSbi&2ibb222ibbbbVPPPPPPPPPIIII",
"22bbVbbbbbbbbi2222bbbbbbbbVPPPPPPPPIIIII",
"22bbVbbbbbbbbii2&2bbSbbbbbVPPPPPPPIIIIII",
"&&ibbbbbbbbbiii2&2bSPPbbbbPPPIIIIIIIIIII",
"&&&iibbbiiiibbi2&2bSVbbbbPPPIIIIIPIIIIII",
"&X&&2ibi22&2bbbbiibbVbbbbPPPIIIIPPIIIIII",
"&oXo&2ii&&&2iSPbbbbbbbbbPPPIIIIPPPIIIPPP",
"2&oX&&22222ibSPPVVbbbbbPPPIIIPPPPPPPPSbb",
"b2&XX&&2ibbbbVPPPPbbbSPPPPIIPPPPPPPPPbi2",
"bb2oXXX&bSSSPVVPPPbbbPPPPII~~~~PVVP~Pb&&",
"SSb2&oX&bSSPPPPPPPPPPPIPPPPP~CCbibbVbi&&",
"SSbb2&o&bSSPPPPPIIPPPPIPPPVVVbbi22ibb2&X",
"SPPSb2&2bPIIPPPPIIIPPPIPPbbbbii2&&2ii&oX",
"PPPPbb22bPIIPPPPIIIIIIIPbbiibii&X&&22&oX",
"PPPPPbbbSPPPPPPPPIII~~~Pbi2ibii&XX&&&&XX",
"VbPPPPPPPPPPPVVPPI~~~~~bi&&iiii&&oXXXX&&",
"VbPPPPPPPPPPPVVPP~~~~~~bi2&ibbb22&oXXo&2",
"VbVPPPPPPPPPPPPPP~~~~~~bbbbbbbbbb2&oo&ib",
"VbbVVPPPPVPPPPPP~~~~~~bbV~~VVbbSPb2&&2bP",
"bbbVPPPPSbSSPPPPVP~~~bibP~~PVVVPPSb22bSP",
"bbPPPPVPS~~~~~Pbiibbbi&ibPPPPPPPPPSbbSPP",
"bVPPPVVV~~~~~~bi&&ibi2&2bSIPPPPPPPPPPPPP",
"VVPPPVbV~~~~~bb2&&2ii&&2bPIPPPPPPPPIIIIP",
"PPPPbbbV~~~~M22222&&&2ibP~PPPPPPPPPPIIIP",
"PPVbbbbV~~bbi&&2ii&&&i~~~~~VVbbbbVPPIIII",
"SbbbbVV~~~bb2&&2bi&&&b~~~~PVbbbbbbPPPPPP",
"iiibVVP~~~bb2&&2bi&&&b~~~PPVbbbbbbbVPPVb",
"2&iiVP~~~~bb2&&2ii&&&bPIIIPPbbbbbbbbVVbb",
"&&ibVVbP~~bbi&&iii2&2bPPPIPPbbbbbbbbbbbb",
"&&iMbbiibbbbbiiibbbbbbPPPPPPbbbbbbbbbVbb",
"&&bbb2&2ibbbbbbbbbbSSVbPPPPVbbbbbbbbVVPb",
"&&ibi2&2ibbbbbbbbbbSSVbPPPPVbbbbbbbbPPPb",
"2222222ibbbbbbbbbbPPPPbPPPPVbbbbbbbbPPPS",
"2222222ibSVbbbbbbbVVPPPPPPPbbbbbPPPPPPPb",
"ii&&&iibbPPPPbbbbbbVVPPPVVbbbbbPPPPPPPbb",
"ii222ibbPPPVVVbbbbbbVPPPbbibbbbbSSPPPPPP",
"ibbbbbSPPPVVVVVbbbbbbPPSbi:ibbbb2bSPPPPP",
"bbSSSPPPPVPPPPPPbbbbbPPb2&&iiii2&2bSIPPP",
"bPPPIIIPPPPPPPPPVbbbbPPb2&&&&&2&X&bSPPSS",
"bPPIIIIPPPPPPPPPPVbbbbPb&&X&&&&&X&bSPbbb",
"PPIIIIIIPPPPPPPPPPVbbbbi&&ooX++XX&iSSb22",
"PIIIIIIIIIPPPPPPIPPVbbii2&&oXXXX&&2bb222",
"PIIIIIIIIIPPPPPPIPPbbi22222&oXX&&22ii22i",
"IIIIIIIIIIPPPVVPPPVbi2&&bbb2&&&&ii2&&2ib",
"IIIIIIIIIIPPPbVPPPVbi&X&bSb2&&&2ii&&&&ib"
};
