/* XPM */
static char *_b77164da58649e8e5769f790dab254fhbHXZ9421870pv2Q[] = {
/* columns rows colors chars-per-pixel */
"40 50 81 1 ",
"  c black",
". c #920394",
"X c #FB00FF",
"o c #8ECA82",
"O c #8ECB82",
"+ c #8FCB82",
"@ c #8FCC82",
"# c #8FCD82",
"$ c #90CC82",
"% c #90CD82",
"& c #91CD82",
"* c #90CE82",
"= c #91CE82",
"- c #91CF82",
"; c #91CE83",
": c #92CE82",
"> c #92CF82",
", c #92CF83",
"< c #91D082",
"1 c #92D082",
"2 c #93D082",
"3 c #92D182",
"4 c #93D182",
"5 c #92D083",
"6 c #93D083",
"7 c #92D183",
"8 c #93D183",
"9 c #93D282",
"0 c #92D283",
"q c #93D283",
"w c #93D383",
"e c #94D083",
"r c #94D183",
"t c #94D282",
"y c #94D382",
"u c #94D283",
"i c #95D283",
"p c #94D383",
"a c #95D383",
"s c #96D383",
"d c #94D482",
"f c #95D582",
"g c #94D483",
"h c #95D483",
"j c #94D583",
"k c #95D583",
"l c #96D483",
"z c #97D483",
"x c #96D583",
"c c #97D583",
"v c #95D683",
"b c #95D783",
"n c #96D683",
"m c #97D683",
"M c #96D783",
"N c #97D783",
"B c #96D584",
"V c #97D684",
"C c #98D683",
"Z c #98D783",
"A c #98D784",
"S c #96D883",
"D c #97D883",
"F c #97D983",
"G c #97DA83",
"H c #98D883",
"J c #98D983",
"K c #99D983",
"L c #98DA83",
"P c #99DA83",
"I c #98DB83",
"U c #99DB83",
"Y c #99DC83",
"T c #98D884",
"R c #98D984",
"E c #99D984",
"W c #99DA84",
"Q c #99DB84",
"! c #9ADA84",
"~ c #9ADB84",
"^ c white",
/* pixels */
"YYYUUZmmmmmmmmZUUF4--4aZUUUUmmmmma----am",
"UUYUUZmmmmmmmmmUUF4--4aZUUUUmmmmma4--4mZ",
"UUUUUZmmmmmmmammUF4--4mmZUUUUmmmmma44amU",
"UUUUUZmmUFFma44mUF4--4mmmZZUUUUmmmmmmmUU",
"ZZ!!UZmZUFFm4--mUF4@@4mmmmZUUUUUmZU!!YYY",
"aamUZZmmUFFma-4amm444ammmmZUUUUUUUUUYYYY",
"44mmZmmmmmmmma4444mmmmmmmmZUUUUUUUUYYYYY",
"44mmZmmmmmmmmaa4-4mmFmmmmmZUUUUUUUYYYYYY",
"--ammmmmmmmmaaa4-4mFUUmmmmUUUYYYYYYYYYYY",
"---aammmaaaamma4-4mFZmmmmUUUYYYYYUYYYYYY",
"-+--4ama44-4mmmmaammZmmmmUUUYYYYUUYYYYYY",
"-@+@-4aa---4aFUmmmmmmmmmUUUYYYYUUUYYYUUU",
"4-@+--44444amFUUZZmmmmmUUUYYYUUUUUUUUFmm",
"m4-++--4ammmmZUUUUmmmFUUUUYYUUUUUUUUUma4",
"mm4@+++-mFFFUZZUUUmmmUUUUYY!!!!UZZU!Um--",
"FFm4-@+-mFFUUUUUUUUUUUYUUUUU!AAmammZma--",
"FFmm4-@-mFFUUUUUYYUUUUYUUUZZZmma44amm4-+",
"FUUFm4-4mUYYUUUUYYYUUUYUUmmmmaa4--4aa-@+",
"UUUUmm44mUYYUUUUYY     Ummaamaa-+--44-@+",
"UUUUUmmmFUUUUUUU  .....  a4amaa-++----++",
"ZmUUUUUUUUUUUZU XX.^.^.XX -aaaa--@++++--",
"ZmUUUUUUUUUUUZU XX^.^.^XX 4ammm44-@++@-4",
"ZmZUUUUUUUUUUU  ..^...^..  mmmmmm4-@@-am",
"ZmmZZUUUUZUUUU ...^...^... ZZmmFUm4--4mU",
"mmmZUUUUFmFFUU ...     ... UZZZUUFm44mFU",
"mmUUUUZUF!!!!!  .. ^^^ ... UUUUUUUFmmFUU",
"mZUUUZZZ!!!!!! ^   ^^^   ^ UUUUUUUUUUUUU",
"ZZUUUZmZ!!!!!mm ^^^   ^^^ YUUUUUUUUYYYYU",
"UUUUmmmZ!!!!B44 ^^^^^^^^^ UUUUUUUUUUYYYU",
"UUZmmmmZ!!mma--4  ^^^^^  !!ZZmmmmZUUYYYY",
"FmmmmZZ!!!mm4--4ma     !!!UZmmmmmmUUUUUU",
"aaamZZU!!!mm4--4ma---m!!!UUZmmmmmmmZUUZm",
"4-aaZU!!!!mm4--4aa---mUYYYUUmmmmmmmmZZmm",
"--amZZmU!!mma--aaa4-4mUUUYUUmmmmmmmmmmmm",
"--aBmmaammmmmaaammmmmmUUUUUUmmmmmmmmmZmm",
"--mmm4-4ammmmmmmmmmFFZmUUUUZmmmmmmmmZZUm",
"--ama4-4ammmmmmmmmmFFZmUUUUZmmmmmmmmUUUm",
"4444444ammmmmmmmmmUUUUmUUUUZmmmmmmmmUUUF",
"4444444amFZmmmmmmmZZUUUUUUUmmmmmUUUUUUUm",
"aa---aammUUUUmmmmmmZZUUUZZmmmmmUUUUUUUmm",
"aa444ammUUUZZZmmmmmmZUUUmmammmmmFFUUUUUU",
"ammmmmFUUUZZZZZmmmmmmUUFma,ammmm4mFUUUUU",
"mmFFFUUUUZUUUUUUmmmmmUUm4--aaaa4-4mFYUUU",
"mUUUYYYUUUUUUUUUZmmmmUUm4-----4-+-mFUUFF",
"mUUYYYYUUUUUUUUUUZmmmmUm--+-----+-mFUmmm",
"UUYYYYYYUUUUUUUUUUZmmmma--@@+$$++-aFFm44",
"UYYYYYYYYYUUUUUUYUUZmmaa4--@++++--4mm444",
"UYYYYYYYYYUUUUUUYUUmma44444-@++--44aa44a",
"YYYYYYYYYYUUUZZUUUZma4--mmm4----aa4--4am",
"YYYYYYYYYYUUUmZUUUZma-+-mFm4---4aa----am"
};
