/* XPM */
static char *_a9ecc9d33f4407dfa00341eec8196a0YCo921kmKyH4kxWM[] = {
/* columns rows colors chars-per-pixel */
"40 50 175 2 ",
"   c #010302",
".  c #0C0303",
"X  c #000B01",
"o  c #070B0B",
"O  c #0D0B0C",
"+  c #080309",
"@  c #170000",
"#  c #1C0200",
"$  c #001402",
"%  c #140F13",
"&  c #0E1E11",
"*  c #131315",
"=  c #230000",
"-  c #2E0000",
";  c #2C0905",
":  c #300000",
">  c #3C0000",
",  c #271E0D",
"<  c #3C1E14",
"1  c #0E290A",
"2  c #082511",
"3  c #1D231F",
"4  c #1E3F24",
"5  c #282727",
"6  c #243F2C",
"7  c #31342D",
"8  c #313B31",
"9  c #36373B",
"0  c #460807",
"q  c #580D0C",
"w  c #451B0F",
"e  c #581D1B",
"r  c #791015",
"t  c #73221E",
"y  c #5E1A29",
"u  c #6A1A24",
"i  c #7E1F23",
"p  c #5C2A2D",
"a  c #4D3B39",
"s  c #5D3830",
"d  c #58383A",
"f  c #582A34",
"g  c #6B2126",
"h  c #66292C",
"j  c #7E2827",
"k  c #772928",
"l  c #6D322E",
"z  c #75342D",
"x  c #762C33",
"c  c #7F2D37",
"v  c #603139",
"b  c #6A3535",
"n  c #783637",
"m  c #3A442E",
"M  c #42483A",
"N  c #554C3E",
"B  c #59413F",
"V  c #72403F",
"C  c #763743",
"Z  c #3D4746",
"A  c #4A4B46",
"S  c #534B45",
"D  c #524648",
"F  c #575746",
"G  c #545959",
"H  c #7B4E48",
"J  c #625349",
"K  c #4A684E",
"L  c #4B6756",
"P  c #5D6C53",
"I  c #536E5F",
"U  c #54745D",
"Y  c #60795B",
"T  c #5A7063",
"R  c #656F6E",
"E  c #67766F",
"W  c #677A66",
"Q  c #940D0A",
"!  c #9E1409",
"~  c #8F1D1D",
"^  c #931A13",
"/  c #9B1619",
"(  c #84251F",
")  c #8C2622",
"_  c #982528",
"`  c #8C332D",
"'  c #92302D",
"]  c #832D3C",
"[  c #882D3C",
"{  c #89363A",
"}  c #BE2C2D",
"|  c #AC3A35",
" . c #BC3933",
".. c #B53A3F",
"X. c #CF271A",
"o. c #C6362A",
"O. c #CB332E",
"+. c #D93729",
"@. c #C53A3D",
"#. c #D53A33",
"$. c #E63F36",
"%. c #86433D",
"&. c #94473C",
"*. c #B9423B",
"=. c #CE443F",
"-. c #D84438",
";. c #833B46",
":. c #9E4F48",
">. c #904E49",
",. c #AC4348",
"<. c #B7484F",
"1. c #BE4E40",
"2. c #A14E5E",
"3. c #B64A52",
"4. c #A0505B",
"5. c #D94940",
"6. c #CF4C51",
"7. c #6B8D75",
"8. c #7E8075",
"9. c #799A7D",
"0. c #B37A83",
"q. c #C97582",
"w. c #798985",
"e. c #849888",
"r. c #989A96",
"t. c #A28F89",
"y. c #AD968C",
"u. c #BF9E97",
"i. c #B59E94",
"p. c #8FA49D",
"a. c #93AF98",
"s. c #B0A19E",
"d. c #A09EA3",
"f. c #97A6A2",
"g. c #B8A6A2",
"h. c #BEB7AD",
"j. c #CA9897",
"k. c #D49A9C",
"l. c #CEA29F",
"z. c #D79FA0",
"x. c #C8BAAD",
"c. c #D2BEB3",
"v. c #D5A8A5",
"b. c #E8A8AB",
"n. c #8FCB82",
"m. c #91CE82",
"M. c #96D483",
"N. c #98D783",
"B. c #97D883",
"V. c #99DA83",
"C. c #A5D293",
"Z. c #F7CDBD",
"A. c #B8D2C5",
"S. c #C2DACD",
"D. c #C5DCD4",
"F. c #FFC4C8",
"G. c #E3D7CA",
"H. c #EBD6CD",
"J. c #F4D6CD",
"K. c #FBD6C6",
"L. c #FFCED4",
"P. c #FFD2D0",
"I. c #FFDFD6",
"U. c #FFDEDF",
"Y. c #F2DBD1",
"T. c #EDE0CF",
"R. c #FFEAD7",
"E. c #FFE5DE",
"W. c #FFEEDE",
"Q. c #FCE6E6",
"!. c #E3F7E7",
"~. c #FFF7E7",
"^. c #FFECF1",
"/. c #F6F7F1",
"(. c #F9FDFF",
/* pixels */
"V.V.V.V.V.N.N.N.N.N.N.N.N.N.N.B.V.N.M.n.m.m.M.N.V.V.V.V.N.N.N.N.N.M.m.m.n.m.M.N.",
"V.V.V.V.V.N.N.N.N.N.N.N.N.N.N.B.V.N.M.n.n.m.N.N.V.V.V.V.N.N.N.N.N.M.M.m.m.m.N.N.",
"V.V.V.V.V.N.N.N.N.N.N.N.N.M.M.N.V.B.M.n.n.m.M.N.V.V.V.V.V.N.N.N.N.N.M.M.M.M.N.V.",
"V.V.V.V.V.N.N.N.V.B.B.N.M.M.M.N.V.B.M.m.n.m.M.N.N.N.V.V.V.V.V.N.N.N.N.N.N.N.V.V.",
"N.N.V.V.V.N.N.N.B.B.B.N.M.n.m.N.V.B.M.n.n.m.N.N.N.N.N.V.V.V.V.N.N.V.V.V.V.V.V.V.",
"M.M.N.V.N.N.N.N.N.B.N.N.M.m.m.M.N.M.M.M.M.M.N.N.N.N.N.V.V.V.V.V.V.V.V.V.V.V.V.V.",
"M.M.N.N.N.N.N.N.N.N.N.N.M.M.M.m.M.M.M.M.N.N.N.N.N.N.N.V.V.V.V.V.V.V.V.V.V.V.V.V.",
"M.M.N.N.N.N.N.N.N.N.N.M.M.M.M.M.m.M.N.B.N.N.N.N.N.N.N.V.V.V.V.V.V.V.V.V.V.V.V.V.",
"m.m.M.M.N.N.N.N.N.N.N.M.N.M.M.M.m.M.N.B.V.V.N.N.N.N.V.V.V.V.V.V.V.V.V.V.V.V.V.V.",
"m.m.m.M.M.N.N.M.M.M.M.M.N.N.N.M.m.M.N.B.N.N.N.N.B.V.V.V.V.V.V.V.V.V.V.V.V.V.V.V.",
"m.n.m.m.M.M.N.M.M.m.m.M.N.B.N.N.M.M.N.N.N.N.N.N.B.V.V.V.V.V.V.V.V.V.V.V.V.V.V.V.",
"m.n.n.n.m.M.M.M.m.m.m.M.N.B.V.N.N.N.N.N.N.N.N.N.V.V.V.V.V.V.V.V.V.V.V.V.V.V.V.V.",
"M.m.n.n.n.m.M.M.M.M.M.M.N.N.B.B.N.N.N.N.N.N.N.N.V.V.V.V.V.V.V.V.V.V.V.V.V.B.N.N.",
"N.M.n.n.n.n.m.M.M.N.N.N.N.N.N.B.h u x C d D V.V.V.V.V.V.V.V.V.V.V.V.B.V.V.N.M.M.",
"N.N.M.n.n.n.n.m.N.N.B.B.B.N.0 t ' <.3.q.L.^.A 8 V.V.V.V.V.V.V.V.N.N.V.V.V.N.m.m.",
"B.B.N.M.n.n.n.m.N.B.B.V.B.g ,. .=.@...L.z.t.r./.7 V.V.V.V.V.V.N.M.N.N.N.N.M.m.m.",
"B.B.N.N.M.m.n.m.N.B.B.V.b i 6.#.#.O.*.&.E.H.F r.S V.N.N.N.N.N.M.M.M.M.N.N.M.m.n.",
"B.V.B.B.N.M.m.M.N.V.V.V.l 3.} $.X.-.*.&.K.~.S s.Q.a N.N.N.M.M.m.m.m.M.M.M.m.n.n.",
"B.V.V.B.N.N.M.M.B.V.V.V.n ~ #.+.+.o.1.:.R.T.N d ^.f M.M.N.M.M.m.n.m.m.M.M.m.n.n.",
"V.V.V.V.B.N.N.N.B.V.V.V.z )  .#.+.o.| &.Z.W.J U.0.C y v M.M.M.m.n.n.n.m.m.m.n.n.",
"N.N.V.V.V.V.V.V.V.V.V.V.e ` ^ ! 5.=.*.:.I.J.E.Q.;.[ 2.C a M.M.m.m.n.n.n.n.n.m.m.",
"N.N.V.V.V.V.V.V.V.V.V.V.s z ( ^ Q / _ j P.Q.P.F.c [ 4.p # M.M.M.M.m.n.n.n.n.m.M.",
"N.N.N.V.V.V.V.V.V.V.V.V.. H k ) | _ r j x F.b { u c >.# N.N.N.N.N.M.m.n.n.m.M.N.",
"N.N.N.N.V.V.V.V.V.N.V.V.V.# - %.q { { g x n h x > - = N.N.N.N.N.V.N.M.m.m.M.N.B.",
"N.N.N.N.V.V.V.V.V.N.V.V.O a B @ w 0 q b.e b.j.: n ; V.B.B.N.N.V.V.B.N.M.M.N.B.V.",
"N.N.V.V.V.V.V.V.V.V.V.  o + S m m < k.k.h l.E.@ c.a V.V.V.V.V.V.V.V.B.N.N.B.B.V.",
"N.N.V.V.V.N.N.N.V.V.V.V.V.5 3 4 1 , u.v.j.J.Y.G.G.h.V.V.V.V.V.V.V.V.V.V.V.V.V.V.",
"N.V.V.V.V.N.N.N.V.V.V.V.* + 7 $ X F N x.i.y.H.C.g.V.V.V.V.V.V.V.V.V.V.V.V.V.V.V.",
"V.V.V.V.N.N.N.N.V.V.B.B.M.M.M.X Y P P   F x.J N.V.V.V.V.V.V.V.V.V.V.V.V.V.V.V.V.",
"V.V.N.N.N.N.N.N.V.B.N.N.M.m.& a.9.K $ W e.M 8.V.V.V.V.N.N.N.N.N.N.N.V.V.V.V.V.V.",
"B.N.N.N.N.N.N.V.V.B.N.N.M.m.  L 7.U 2 m !.!.8   V.V.V.N.N.N.N.N.N.N.V.V.V.V.V.V.",
"M.M.M.N.N.N.V.V.V.V.N.N.M.m.X T e.I X L A.S.$ X V.V.V.N.N.N.N.N.N.N.N.N.V.V.N.N.",
"m.m.M.N.N.N.V.V.V.V.N.N.M.m.o G E   X p.f.D.w.  V.V.V.V.N.N.N.N.N.N.N.N.N.N.N.N.",
"m.m.M.N.N.N.N.V.V.N.N.N.M.m.m.O +   G f.R w.r.Z V.V.V.V.N.N.N.N.N.N.N.N.N.N.N.N.",
"m.m.M.M.N.M.M.M.N.N.N.N.N.M.M.M.N.  d.G 9 (.  V.V.V.V.V.N.N.N.N.N.N.N.N.N.N.N.N.",
"m.m.N.N.N.M.m.m.M.N.N.N.N.N.N.N.N.N.  %     N.V.V.V.V.V.N.N.N.N.N.N.N.N.N.V.V.N.",
"m.m.M.N.M.m.m.m.M.N.N.N.N.N.N.N.N.N.N.B.B.N.N.V.V.V.V.N.N.N.N.N.N.N.N.N.V.V.V.B.",
"M.M.M.M.M.M.M.M.N.N.N.N.N.N.N.N.N.N.V.V.V.V.N.V.V.V.V.N.N.N.N.N.N.N.N.N.V.V.V.B.",
"m.M.M.M.M.M.M.M.N.B.N.N.N.N.N.N.N.N.N.V.V.V.V.V.V.V.V.N.N.N.N.N.B.B.V.V.V.V.V.N.",
"M.M.m.m.m.M.M.N.B.V.B.N.N.N.N.N.N.N.N.N.N.V.V.V.V.N.N.N.N.N.N.V.B.V.V.V.V.V.N.N.",
"M.M.M.M.M.N.N.B.V.V.V.V.V.N.N.N.N.N.N.N.N.V.V.V.N.N.M.M.N.N.N.N.B.B.V.V.V.B.N.N.",
"M.N.N.N.N.B.B.V.B.B.V.V.V.V.V.N.N.N.N.N.N.V.V.B.N.M.m.M.N.N.N.N.M.N.B.V.V.V.B.B.",
"N.N.B.B.B.V.V.V.N.N.N.V.V.V.V.N.N.N.N.N.N.V.V.N.M.m.m.M.M.M.M.M.m.M.N.B.V.V.V.V.",
"N.V.V.V.V.V.V.V.B.N.V.V.V.V.V.N.N.N.N.N.N.N.V.N.M.m.n.m.m.m.M.m.n.m.N.B.V.B.B.B.",
"N.B.V.V.V.V.V.V.V.V.V.V.V.V.V.V.N.N.N.N.N.N.V.N.M.m.n.m.m.m.m.m.n.m.N.B.B.N.N.N.",
"V.V.V.V.V.V.V.V.V.V.V.V.V.V.V.V.V.B.N.N.N.N.N.M.m.m.n.n.n.m.m.n.n.m.M.B.N.N.M.M.",
"V.V.V.V.V.V.V.V.V.V.V.V.V.V.V.V.V.B.N.N.N.M.M.M.M.m.n.n.n.n.n.n.m.m.M.N.N.M.M.M.",
"V.V.V.V.V.V.V.V.V.V.V.V.V.V.V.V.V.B.N.N.M.M.M.M.M.M.M.n.n.n.n.m.m.M.M.M.M.M.M.M.",
"V.V.V.V.V.V.V.V.V.V.V.V.V.V.V.V.V.V.V.N.M.M.m.m.N.N.N.M.m.m.n.m.M.M.m.m.m.m.M.N.",
"V.V.V.V.V.V.V.V.V.V.V.V.V.N.V.V.V.V.V.N.M.m.n.m.N.B.N.M.n.m.m.M.M.M.m.n.n.m.M.N."
};
