/* XPM */
static char *bdb4938a7e9e4a11cb528b805c97b89a5lpVkhmF4AbWk0Gj[] = {
/* columns rows colors chars-per-pixel */
"40 50 180 2 ",
"   c #020102",
".  c #0A0101",
"X  c #010B03",
"o  c #04000C",
"O  c #000A08",
"+  c #0A0707",
"@  c #130101",
"#  c #1A0002",
"$  c #110D0A",
"%  c #01130D",
"&  c #0D0B13",
"*  c #0D0512",
"=  c #041C1B",
"-  c #220000",
";  c #2B0000",
":  c #330000",
">  c #29160F",
",  c #0B2019",
"<  c #27221D",
"1  c #2A241D",
"2  c #001F20",
"3  c #0A292B",
"4  c #0D3733",
"5  c #0A352B",
"6  c #2D2A25",
"7  c #362F27",
"8  c #323A2B",
"9  c #263439",
"0  c #67231A",
"q  c #573327",
"w  c #5E2D31",
"e  c #66292B",
"r  c #672827",
"t  c #702428",
"y  c #683324",
"u  c #7C382C",
"i  c #742F32",
"p  c #7A3634",
"a  c #44463B",
"s  c #6B433A",
"d  c #2E3444",
"f  c #1F4840",
"g  c #1B4141",
"h  c #294C4E",
"j  c #3C4F4C",
"k  c #3D504C",
"l  c #295150",
"z  c #385655",
"x  c #4C4643",
"c  c #4C4F49",
"v  c #494845",
"b  c #574C44",
"n  c #5A594F",
"m  c #554D5C",
"M  c #4A5D54",
"N  c #575659",
"B  c #664848",
"V  c #644747",
"C  c #685046",
"Z  c #61544B",
"A  c #6B575C",
"S  c #7E5858",
"D  c #4D6857",
"F  c #795863",
"G  c #5E6A60",
"H  c #627063",
"J  c #91131F",
"K  c #9A1121",
"L  c #832E2B",
"P  c #8F352D",
"I  c #852C33",
"U  c #952C33",
"Y  c #AA3D38",
"T  c #B73A35",
"R  c #C3393E",
"E  c #A1443F",
"W  c #BC433B",
"Q  c #C7423D",
"!  c #AF3741",
"~  c #A63D44",
"^  c #BC3646",
"/  c #B63844",
"(  c #AE3F50",
")  c #BD3F54",
"_  c #944E58",
"`  c #885A57",
"'  c #864B45",
"]  c #A44E4D",
"[  c #B24246",
"{  c #BB4649",
"}  c #A04453",
"|  c #BF4F5D",
" . c #AB5057",
".. c #86665B",
"X. c #A9605A",
"o. c #877575",
"O. c #C64547",
"+. c #CF4857",
"@. c #C44153",
"#. c #70816F",
"$. c #7F917B",
"%. c #87827C",
"&. c #788C83",
"*. c #7E9084",
"=. c #7D8496",
"-. c #6D908F",
";. c #898582",
":. c #849489",
">. c #889583",
",. c #859592",
"<. c #949C9F",
"1. c #B58A83",
"2. c #A2958C",
"3. c #BF948D",
"4. c #8CA19C",
"5. c #9EAA9D",
"6. c #A0A698",
"7. c #B3A196",
"8. c #B7A59E",
"9. c #8D93A1",
"0. c #A39CA3",
"q. c #9FA3AF",
"w. c #A9A7A8",
"e. c #B7ABA6",
"r. c #A1B7A0",
"t. c #ACA3B4",
"y. c #B1AABC",
"u. c #C19187",
"i. c #C89C96",
"p. c #C1A99D",
"a. c #C3A299",
"s. c #C4AAA4",
"d. c #C4B0A5",
"f. c #D7B4B2",
"g. c #E5BCB6",
"h. c #8FCB82",
"j. c #91CE82",
"k. c #96D483",
"l. c #98D783",
"z. c #97D883",
"x. c #99DA83",
"c. c #9ED98A",
"v. c #A2DA8C",
"b. c #A9C0B6",
"n. c #EDC6B8",
"m. c #F2CFBB",
"M. c #BAB2C9",
"N. c #C3BACF",
"B. c #DBCCC9",
"V. c #F6CFC0",
"C. c #FECECA",
"Z. c #F5CBCC",
"A. c #FFD9CD",
"S. c #E3DDDE",
"D. c #EFDDDD",
"F. c #FFDCD4",
"G. c #FEDBDC",
"H. c #F8D8D8",
"J. c #EBC4C5",
"K. c #D9E3D7",
"L. c #FDE2CD",
"P. c #EBE3DB",
"I. c #FFE4DA",
"U. c #F6E7D9",
"Y. c #E1DCE3",
"T. c #F2DDE2",
"R. c #FCDBE2",
"E. c #DDECE5",
"W. c #E3EFE3",
"Q. c #E9E9E9",
"!. c #F9E4E4",
"~. c #FDE5EC",
"^. c #FDEAEC",
"/. c #FBE8E8",
"(. c #FFF4E7",
"). c #FAF2EB",
"_. c #F3EEF2",
"`. c #EBFEFC",
"'. c #FCF5F2",
"]. c #F3F5F0",
/* pixels */
"x.x.x.x.x.l.l.l.l.l.l.l.l.l.l.z.x.l.k.h.j.j.k.l.x.x.x.x.l.l.l.l.l.k.j.j.h.j.k.l.",
"x.x.x.x.x.l.l.l.l.l.l.l.l.l.l.z.x.l.k.h.h.j.l.l.x.x.x.x.l.l.l.l.l.k.k.j.j.j.l.l.",
"x.x.x.x.x.l.l.l.l.l.l.l.l.k.k.l.x.z.k.h.h.j.k.l.x.x.x.x.x.l.l.l.l.l.k.k.k.k.l.x.",
"x.x.x.x.x.l.l.l.x.z.z.l.k.k.k.l.x.z.k.j.h.j.k.l.l.l.x.x.x.x.x.l.l.l.l.l.l.l.x.x.",
"l.l.x.x.x.l.l.l.z.z.z.l.k.h.j.l.x.z.k.h.h.j.l.l.l.l.l.x.x.x.x.l.l.x.x.x.x.x.x.x.",
"k.k.l.x.l.l.l.l.l.z.l.l.k.j.j.k.l.k.k.k.k.k.l.l.l.l.l.x.x.x.x.x.x.x.x.x.x.x.x.x.",
"k.k.l.l.l.l.l.l.l.l.l.l.k.k.k.j.k.k.k.k.l.l.l.l.l.l.l.x.x.x.x.x.x.x.x.x.x.x.x.x.",
"k.k.l.l.l.l.l.l.l.l.l.k.k.k.k.k.j.k.l.z.l.l.l.l.l.l.l.x.x.x.x.x.x.x.x.x.x.x.x.x.",
"j.j.k.k.l.l.l.l.l.l.l.k.l.k.k.k.j.k.l.z.x.x.l.l.l.l.x.x.x.x.x.x.x.x.x.x.x.x.x.x.",
"j.j.j.k.k.l.l.k.k.k.k.k.l.l.l.k.j.k.l.z.l.l.l.l.z.x.x.x.x.x.x.x.x.x.x.x.x.x.x.x.",
"j.h.j.j.k.k.l.k.k.j.j.k.l.z.l.l.k.k.l.l.l.l.l.l.z.x.x.x.x.x.x.x.x.x.x.x.x.x.x.x.",
"j.h.h.h.j.k.k.k.j.j.j.k.l.z.x.l.l.l.l.l.l.l.l.l.x.x.x.x.x.x.x.x.x.x.x.x.x.x.x.x.",
"k.j.h.h.h.j.k.k.k.k.k.k.l.l.z.z.l.l.l.l.l.l.l.x.x.x.x.x.x.x.x.x.x.x.x.x.x.z.l.l.",
"l.k.h.h.h.h.j.k.k.l.l.l.l.l.l.z.c.z.v.l.c.z.x.x.x.x.x.x.x.x.x.x.x.x.z.x.x.l.k.k.",
"l.l.k.h.h.h.h.j.l.l.z.z.z.l.l.z.r u u t p i e x.x.x.x.x.x.x.x.x.l.l.x.x.x.l.j.j.",
"z.z.l.k.h.h.h.j.l.z.z.x.z.x.e I | ^ ^ K +./ ! U I c.x.x.x.x.x.l.k.l.l.l.l.k.j.j.",
"z.z.l.l.k.j.h.j.l.z.z.x.x.w _ } ( ) @.J / { [ ~  .t l.l.l.l.l.k.k.k.k.l.l.k.j.h.",
"z.x.z.z.l.k.j.k.l.x.x.x.x.@ S G.R.G.G.1.I.I.F.F.` # l.l.l.k.k.k.j.j.k.k.k.j.h.h.",
"z.x.x.z.l.l.k.k.l.x.x.x.. A /.!.'.P.).6.K.P.U.D.!.o.. k.l.k.k.j.h.j.j.k.k.j.h.h.",
"x.x.x.x.z.l.l.l.z.x.x.x.@ F R.T.S.].K.M k W.'./.~.A . k.l.k.k.j.h.h.h.j.j.j.h.h.",
"l.l.x.x.x.x.x.x.x.x.x.x.# ~.^.^.Q.W.M 4.`.Q.S./.T.^.. k.k.k.k.j.j.h.h.h.h.h.j.j.",
"l.l.x.x.x.x.x.x.x.x.x.@ . B.).P.P.n a c c b P.^./.D.@   k.k.k.k.k.j.h.h.h.h.j.k.",
"l.l.l.x.x.x.x.x.x.x.$ x . > C ..A.A.F.3.G./.F.` S @ . n . l.l.l.l.k.j.h.h.j.k.l.",
"l.l.l.l.x.x.x.x.x.l.    d.# ' ] { { R T O.T Y E X.- 8.    l.l.l.x.l.k.j.j.k.l.z.",
"l.l.l.l.x.x.x.x.x.l.x.. 7.s p L [ O.R Q T W { P 0 s e.  l.l.l.x.x.z.l.k.k.l.z.x.",
"l.l.x.x.x.x.x.x.x.x.x.  < Z p.q i.y ; : u y u.q p.b 1   x.x.x.x.x.x.z.l.l.z.z.x.",
"l.l.x.x.x.l.l.l.x.x.x.  < 1 2.d.L.@ L.m.m.@ (.7.8.7 6   x.x.x.x.x.x.x.x.x.x.x.x.",
"l.x.x.x.x.l.l.l.x.x.x.x.@ @ B f.n.g.C.C.C.n.V.p.V @ . x.x.x.x.x.x.x.x.x.x.x.x.x.",
"x.x.l.x.l.l.l.l.x.x.x.x.k.k.@ B s.H.J.i.Z.F.a.V @ x.x.x.x.x.x.x.x.x.x.x.x.x.x.x.",
"x.x.l.l.l.l.l.l.x.x.l.l.k.  Q.;.  n w.e.e.x   %.'.q x.l.l.l.l.l.l.l.x.x.x.x.x.x.",
"z.l.l.l.l.l.l.x.x.x.l.l.  5.E.,.k j = , % 9 j :.W.5.8 l.l.l.l.l.l.l.x.x.x.x.x.x.",
"k.k.k.l.l.l.x.x.x.x.l.H *.b.z O -.l 4 5 f h -.X D r.$.G l.l.l.l.l.l.l.l.x.x.l.l.",
"j.k.k.l.l.l.x.x.x.x.l.  :.&.O O 3 z 2 g = z 3 % X #.>.X l.l.l.l.l.l.l.l.l.l.l.l.",
"j.j.k.l.l.l.l.x.x.l.l.l.+     N q.9.d =.9 <.w.v       x.l.l.l.l.l.l.l.l.l.l.l.l.",
"j.j.k.k.l.k.k.k.l.l.l.l.l.k.. 0.m t.N.M.y.0.x w.o x.z.z.l.l.l.l.l.l.l.l.l.l.l.l.",
"j.j.l.l.l.k.j.j.k.l.l.l.l.l.o Y.Q.* o o * & S._.+ c.z.z.l.l.l.l.l.l.l.l.l.x.x.l.",
"j.j.k.l.k.k.j.j.k.l.l.l.l.l.l.+   l.l.z.z.l.    x.x.x.l.l.l.l.l.l.l.l.l.x.x.x.z.",
"j.j.k.k.k.k.k.k.l.l.l.l.l.l.l.k.l.l.x.x.x.x.l.x.x.x.x.l.l.l.l.l.l.l.l.l.x.x.x.z.",
"j.k.k.k.k.k.k.k.l.z.l.l.l.l.l.l.l.l.l.x.x.x.x.x.x.x.x.l.l.l.l.l.z.z.x.x.x.x.x.l.",
"k.k.j.j.j.k.k.l.z.x.z.l.l.l.l.l.l.l.l.l.l.x.x.x.x.l.l.l.l.l.l.x.z.x.x.x.x.x.l.l.",
"k.k.k.k.k.l.l.z.x.x.x.x.x.l.l.l.l.l.l.l.l.x.x.x.l.l.k.k.l.l.l.l.z.z.x.x.x.z.l.l.",
"k.l.l.l.l.z.z.x.z.z.x.x.x.x.x.l.l.l.l.l.l.x.x.z.l.k.j.k.l.l.l.l.k.l.z.x.x.x.z.z.",
"l.l.z.z.z.x.x.x.z.l.l.x.x.x.x.l.l.l.l.l.l.x.x.l.k.j.j.k.k.k.k.k.j.k.l.z.x.x.x.x.",
"l.x.x.x.x.x.x.x.z.z.x.x.x.x.x.l.l.l.l.l.l.l.x.l.k.j.h.j.j.j.k.j.h.j.l.z.x.x.z.z.",
"l.z.x.x.x.x.x.x.x.x.x.x.x.x.x.x.l.l.l.l.l.l.x.l.k.j.h.j.j.j.j.j.h.j.l.z.z.l.l.l.",
"x.x.x.x.x.x.x.x.x.x.x.x.x.x.x.x.x.z.l.l.l.l.l.k.j.j.h.h.h.j.j.h.h.j.k.z.l.l.k.k.",
"x.x.x.x.x.x.x.x.x.x.x.x.x.x.x.x.x.z.l.l.l.k.k.k.k.j.h.h.h.h.h.h.j.j.k.l.l.k.k.j.",
"x.x.x.x.x.x.x.x.x.x.x.x.x.x.x.x.x.z.l.l.k.k.k.k.k.k.k.h.h.h.h.j.j.k.k.k.k.k.k.k.",
"x.x.x.x.x.x.x.x.x.x.x.x.x.x.x.x.x.x.x.l.k.k.j.j.l.l.l.k.j.j.h.j.k.k.j.j.j.j.k.l.",
"x.x.x.x.x.x.x.x.x.x.x.x.x.l.x.x.x.x.x.l.k.j.h.j.l.z.l.k.h.j.j.k.k.k.j.h.h.j.k.l."
};
