/* XPM */
static char *xpm_[] = {
/* columns rows colors chars-per-pixel */
"40 50 178 2 ",
"   c #010201",
".  c #090102",
"X  c #010C02",
"o  c #0F0408",
"O  c #0C0C0B",
"+  c #050E0B",
"@  c #1E0201",
"#  c #110D0C",
"$  c #001402",
"%  c #05130B",
"&  c #0C140A",
"*  c #0B0F10",
"=  c #1F0C10",
"-  c #0F1414",
";  c #1F1617",
":  c #101B17",
">  c #210100",
",  c #2C0000",
"<  c #390000",
"1  c #340002",
"2  c #33180E",
"3  c #271718",
"4  c #2A1A1D",
"5  c #321C1C",
"6  c #3A1D17",
"7  c #11221A",
"8  c #28201E",
"9  c #3E281C",
"0  c #301D23",
"q  c #2B2E2C",
"w  c #252724",
"e  c #382626",
"r  c #392828",
"t  c #24352B",
"y  c #3B3938",
"u  c #430000",
"i  c #431918",
"p  c #421C17",
"a  c #5F1C13",
"s  c #611017",
"d  c #621A14",
"f  c #52261D",
"g  c #4C2126",
"h  c #422C2E",
"j  c #5D2E28",
"k  c #483737",
"l  c #583B37",
"z  c #64242C",
"x  c #6C2925",
"c  c #732325",
"v  c #792728",
"b  c #603127",
"n  c #63382F",
"m  c #62322E",
"M  c #763028",
"N  c #733537",
"B  c #7B3130",
"V  c #2C4B2C",
"C  c #2E572F",
"Z  c #30592F",
"A  c #334C36",
"S  c #394738",
"D  c #374A3C",
"F  c #345434",
"G  c #335930",
"H  c #3B533C",
"J  c #376036",
"K  c #42483D",
"L  c #3B4A43",
"P  c #3D5148",
"I  c #3E5A41",
"U  c #3E6140",
"Y  c #4C4C4C",
"T  c #464743",
"R  c #544E4E",
"E  c #45584C",
"W  c #4A5A4D",
"Q  c #56514B",
"!  c #69484C",
"~  c #65524E",
"^  c #4B6C4C",
"/  c #456347",
"(  c #4D754A",
")  c #4E6551",
"_  c #516750",
"`  c #5D6A59",
"'  c #527453",
"]  c #567557",
"[  c #687A67",
"{  c #9C0D01",
"}  c #940D07",
"|  c #981004",
" . c #A20F00",
".. c #A21400",
"X. c #8A2217",
"o. c #B9351E",
"O. c #9E2D27",
"+. c #802E30",
"@. c #822530",
"#. c #873036",
"$. c #983A3B",
"%. c #AC322D",
"&. c #BC362C",
"*. c #A73838",
"=. c #B13C3C",
"-. c #BB3A38",
";. c #DE2D29",
":. c #D12320",
">. c #C43A28",
",. c #CB352F",
"<. c #DE322E",
"1. c #D53326",
"2. c #C43B34",
"3. c #C33C3A",
"4. c #C73938",
"5. c #D43634",
"6. c #D53935",
"7. c #DD3930",
"8. c #DF3B39",
"9. c #E13737",
"0. c #86463D",
"q. c #9E473E",
"w. c #95473D",
"e. c #CD472E",
"r. c #CD4735",
"t. c #C5443A",
"y. c #C84438",
"u. c #E84438",
"i. c #A73841",
"p. c #AD3B45",
"a. c #B63F43",
"s. c #C33D46",
"d. c #96464F",
"f. c #914A48",
"g. c #9A4746",
"h. c #AE4A45",
"j. c #BC464C",
"k. c #B74843",
"l. c #AE544C",
"z. c #BC4E52",
"x. c #A55555",
"c. c #B15351",
"v. c #CA4445",
"b. c #C24940",
"n. c #C84743",
"m. c #D94542",
"M. c #5D815B",
"N. c #648363",
"B. c #77877D",
"V. c #719070",
"C. c #779B77",
"Z. c #799F76",
"A. c #7D9A7E",
"S. c #798480",
"D. c #7C9180",
"F. c #878987",
"G. c #89978E",
"H. c #8F9392",
"J. c #919E95",
"K. c #8BB188",
"L. c #95A797",
"P. c #93AD93",
"I. c #98A59B",
"U. c #9DB89A",
"Y. c #88A788",
"T. c #A5B5A7",
"R. c #8FCB82",
"E. c #91CE82",
"W. c #96D483",
"Q. c #98D783",
"!. c #97D883",
"~. c #99DA83",
"^. c #9DDC89",
"/. c #CDDAD0",
"(. c #CFE2CF",
"). c #DBEADF",
"_. c #E2EDE7",
"`. c #E7F7E7",
/* pixels */
"~.~.~.~.~.~.Q.Q.W.Q.W.Q.W.Q.Q.~.~.!.W.R.R.E.W.Q.~.~.!.~.W.Q.W.Q.W.W.E.E.R.E.W.!.",
"~.~.~.~.~.~.Q.W.Q.Q.Q.W.W.W.W.~.~.!.W.R.R.W.W.Q.~.~.~.Q.W.Q.Q.W.!.W.E.E.E.W.!.!.",
"~.~.~.~.~.Q.W.Q.W.W.W.!.W.W.W.W.!.W.W.R.R.E.W.!.Q.~.~.Q.~.W.W.Q.!.!.~.~.E.W.!.!.",
"~.~.~.~.~.~.W.Q.~.!.~.W.W.E.W.W.~.W.W.R.R.W.W.!.W.~.Q.~.~.~.~.Q.~.~.~.~.!.!.!.!.",
"W.Q.~.~.Q.Q.Q.Q.~.!.!.!.W.R.E.W.~.!.E.R.R.W.W.W.W.Q.Q.~.~.~.~.~.~.~.~.~.~.~.~.^.",
"W.W.Q.Q.Q.Q.Q.W.~.!.!.W.W.E.W.E.W.W.W.E.E.W.W.W.W.W.Q.~.~.~.~.~.~.~.~.~.~.~.~.^.",
"E.W.W.Q.Q.W.W.Q.W.Q.W.W.W.E.E.W.E.W.W.W.!.W.W.!.Q.W.Q.~.~.~.~.~.~.~.~.~.~.~.~.~.",
"W.E.W.Q.Q.Q.W.Q.~.W.Q.W.W.W.W.E.E.E.!.!.!.!.W.W.W.Q.~.~.~.~.~.~.~.~.~.~.~.~.~.~.",
"E.E.W.W.W.W.W.Q.W.W.W.W.W.W.W.W.E.E.W.!.~.Q.Q.Q.Q.Q.~.~.~.~.~.~.~.~.^.~.~.~.~.~.",
"E.E.E.E.W.W.W.W.W.W.W.W.W.W.W.E.E.W.W.!.Q.Q.W.W.Q.Q.~.~.~.~.~.~.~.~.~.~.~.~.~.~.",
"E.R.E.E.W.W.W.W.W.W.E.W.W.!.~.W.W.W.W.~.Q.W.W.Q.~.~.~.~.^.~.~.~.~.~.~.~.~.~.~.~.",
"E.E.E.E.E.E.W.W.E.E.E.E.W.!.~.W.W.W.W.Q.W.Q.~.W.~.~.~.~.^.~.~.~.~.~.~.~.^.~.~.~.",
"E.E.R.R.R.W.E.E.E.W.W.W.W.W.~.Q.Q.W.Q.W.W.!.W.~.~.~.~.~.~.~.~.~.~.~.~.~.!.!.!.!.",
"W.W.R.R.R.R.R.W.W.W.W.!.W.!.Q.~.~.~.W.Q.!.!.~.~.~.~.~.~.~.~.~.~.~.!.!.~.!.W.W.W.",
"W.W.W.R.R.R.R.E.W.!.!.!.!.~.Q.~.c #.+.c M x N ~.~.~.~.~.~.~.~.~.W.!.!.!.!.W.E.E.",
"W.!.W.R.R.R.R.E.W.W.!.!.!.!.N @.z.a.=.*.*.b.w.+.f ~.~.~.~.~.~.~.W.W.W.!.!.W.E.R.",
"~.!.!.!.E.E.R.E.!.~.~.~.~.m x.*.a.v.&.} 4.3.v.h.w.b Q.Q.Q.W.W.W.E.W.W.!.W.E.R.R.",
"~.~.!.!.!.W.E.E.!.~.~.~.~.< c.=.v.>.r.{ 5.5.6.&.k.u W.W.W.W.W.E.E.E.E.W.W.E.R.R.",
"~.~.~.!.!.W.W.W.!.!.~.~.> f.h.%.t.r.o...1.<.<.6.t.q.> W.Q.E.W.E.R.R.E.E.W.E.R.R.",
"!.~.~.!.!.!.W.!.!.~.^.~., x.=.v.2.>.e.{ u.;.;.8.t.l.@ W.Q.W.W.E.R.E.E.E.E.R.R.R.",
"!.!.!.~.~.~.~.~.~.~.~.~.1 d.j.s.2.,.>...7.:.8.5.t.g.> E.W.E.Q.E.E.E.R.R.R.R.R.E.",
"W.!.~.!.~.~.~.~.~.~.!.~., d.p.s.3.2.r.| m.,.m.3.h.0.@ W.W.W.Q.E.E.E.R.R.R.E.E.E.",
"Q.W.W.~.~.~.~.~.~.W.!.  ! z @.i.j.b.*.X.O.k.k.h.a n k   Q.W.W.W.!.E.E.E.R.E.!.!.",
"Q.Q.W.Q.~.~.~.~.~.W.: T = g z s c c x a M v d x j 9 e Y   W.Q.Q.!.!.!.E.E.E.!.~.",
"Q.Q.W.Q.~.!.!.!.Q.Q.  * y k ! g p p 2 h 9 2 i i l ~ 4     ~.Q.~.~.~.W.W.E.W.~.~.",
"Q.W.~.W.~.Q.!.!.Q.Q.~.~.Y y 4 h 9 k K S K Q e 5 r 3 R ~.~.~.~.~.~.~.!.!.!.!.~.~.",
"W.Q.~.~.Q.!.Q.Q.Q.~.~.O - q 3 4   o E P L   o 4 k 0   # ~.~.~.~.~.~.~.~.!.~.~.~.",
"Q.~.~.~.Q.Q.Q.Q.^.~.~.~.!.+ O   # w 7 + t q   . . . ~.~.~.~.~.~.~.~.~.~.~.~.~.~.",
"Q.~.Q.Q.!.Q.Q.Q.~.~.^.Q.Q.E.      $ X t X X   & X ~.~.~.~.~.Q.Q.~.~.~.~.~.~.~.~.",
"~.~.Q.Q.Q.Q.Q.Q.Q.~.W.W.W.X `.` [ K $ X $ _ [ / (.S ~.Q.Q.Q.Q.Q.W.!.~.~.~.~.~.~.",
"~.Q.W.Q.Q.Q.Q.Q.Q.~.Q.W.  T.`.U.F V.U.N.P.A.A T.`.T.q Q.Q.Q.Q.W.W.!.~.~.~.~.!.!.",
"W.W.W.W.Q.Q.Q.~.~.~.W.B.J.L.H V G ( Z.K.Z.^ H A S T.F.F.W.W.W.Q.W.!.!.~.~.~.!.W.",
"E.E.W.W.^.W.Q.~.~.Q.W.  S.A.H / G ( M.( ( ' D E E G.H.  W.Q.Q.W.Q.Q.W.Q.Q.Q.W.W.",
"E.E.W.W.Q.W.W.~.Q.Q.!.W.% X $ Y.] G J C U / ] G.%     W.Q.W.W.Q.W.Q.Q.W.Q.W.W.W.",
"E.E.W.W.^.W.W.W.Q.Q.^.W.W.W.X L.F ' ^ ' ] ) D I.X ~.^.!.W.Q.Q.W.Q.W.Q.W.W.~.!.W.",
"E.E.W.Q.W.E.E.W.W.W.W.W.W.W.& /.).$ $ X $ % )._.+ ~.!.!.Q.Q.W.~.Q.Q.W.Q.Q.Q.~.!.",
"E.E.Q.Q.W.E.E.E.W.W.W.Q.W.W.W.  & Q.Q.Q.!.Q.& X !.~.~.W.Q.W.Q.W.W.Q.W.~.~.Q.~.W.",
"E.E.E.W.W.E.E.W.W.W.Q.Q.Q.W.W.Q.W.Q.Q.~.!.!.W.~.!.~.~.~.W.Q.W.Q.Q.W.~.W.!.Q.~.~.",
"E.E.Q.E.E.W.E.W.W.~.Q.W.W.Q.Q.W.Q.Q.Q.Q.!.!.!.~.~.~.W.Q.Q.Q.W.W.~.~.Q.~.~.!.Q.W.",
"Q.E.E.E.E.W.W.W.!.~.~.~.Q.W.Q.Q.Q.Q.Q.Q.Q.!.~.~.Q.Q.Q.W.W.Q.~.~.~.~.~.~.~.Q.W.~.",
"W.W.W.E.!.~.~.~.~.~.~.W.~.Q.W.Q.W.W.Q.Q.Q.Q.~.!.!.W.W.!.W.!.!.!.!.~.~.~.~.~.!.!.",
"W.W.W.!.!.~.~.~.~.W.~.Q.Q.~.~.W.Q.W.W.W.Q.Q.!.!.W.W.E.E.W.W.W.W.W.W.!.~.~.~.!.~.",
"W.W.!.!.!.!.~.~.~.Q.~.~.Q.~.~.Q.Q.W.W.Q.Q.!.~.Q.W.E.E.W.W.E.E.W.R.W.W.!.~.~.!.~.",
"W.!.~.~.~.~.^.~.~.Q.W.~.~.~.~.~.Q.Q.W.Q.Q.!.~.Q.E.E.R.E.W.E.W.E.R.R.!.~.~.~.!.W.",
"!.!.~.~.~.~.^.^.~.~.~.~.~.~.~.~.~.!.!.Q.W.!.!.W.W.R.R.R.E.E.E.R.R.E.W.!.~.!.W.W.",
"!.~.~.~.~.~.^.~.~.~.~.~.~.~.~.~.~.~.!.Q.W.W.W.W.W.R.R.R.R.R.E.R.R.R.W.!.W.W.W.W.",
"~.~.~.~.^.~.~.~.~.~.~.~.~.~.~.^.~.~.!.Q.W.W.W.W.E.E.E.R.R.R.R.R.R.R.W.W.W.W.W.E.",
"~.~.~.~.~.~.~.~.~.~.~.~.~.!.~.~.~.!.!.W.W.W.E.W.W.W.E.E.R.R.R.E.E.E.E.W.E.W.E.W.",
"~.~.~.~.~.~.~.~.~.^.~.~.~.~.~.~.~.~.~.~.~.W.R.E.W.!.W.E.E.E.R.E.!.W.E.E.E.E.!.W.",
"~.~.~.~.~.~.~.~.~.~.~.~.~.~.~.~.~.~.~.~.!.E.R.E.W.!.!.E.E.E.E.E.W.W.E.R.E.E.W.!."
};
