/* XPM */
static char *xpm_[] = {
/* columns rows colors chars-per-pixel */
"40 50 77 1 ",
"  c #3C3424",
". c #0D5131",
"X c #17633F",
"o c #4F462B",
"O c #685431",
"+ c #277644",
"@ c #397B54",
"# c #8B662C",
"$ c #4B9352",
"% c #70AB5E",
"& c #5D9265",
"* c #8DBF62",
"= c #B1D66C",
"- c #8ECA82",
"; c #8FCB82",
": c #8FCC82",
"> c #90CC82",
", c #90CD82",
"< c #91CD82",
"1 c #90CE82",
"2 c #91CE82",
"3 c #91CF82",
"4 c #91CE83",
"5 c #92CE82",
"6 c #92CF82",
"7 c #92CF83",
"8 c #91D082",
"9 c #92D082",
"0 c #93D082",
"q c #92D182",
"w c #93D182",
"e c #92D083",
"r c #93D083",
"t c #93D183",
"y c #93D282",
"u c #93D283",
"i c #94D183",
"p c #94D382",
"a c #94D283",
"s c #95D283",
"d c #94D383",
"f c #95D383",
"g c #96D383",
"h c #94D482",
"j c #94D483",
"k c #95D483",
"l c #94D583",
"z c #95D583",
"x c #96D483",
"c c #97D483",
"v c #96D583",
"b c #97D583",
"n c #95D683",
"m c #95D783",
"M c #96D683",
"N c #97D683",
"B c #96D783",
"V c #97D783",
"C c #97D684",
"Z c #98D683",
"A c #98D783",
"S c #96D883",
"D c #97D883",
"F c #97D983",
"G c #97DA83",
"H c #98D883",
"J c #98D983",
"K c #99D983",
"L c #98DA83",
"P c #99DA83",
"I c #98DB83",
"U c #99DB83",
"Y c #99DC83",
"T c #99D984",
"R c #99DA84",
"E c #9ADA84",
"W c #9ADB84",
/* pixels */
"YYUUVAVgVgAgAVUVUSr:55VVUSSUVcAgVg5:54gV",
"UUUUUVVAgVgAVgASUV    gVUUUAVggAVr5554gA",
"UUUUAAgAVVVVgghSU ==== SVAUVVVAVVgrrrgVV",
"AUUUUAVVVVVVrrr  %====%  AVUUUAVVVVVVSUU",
"AVTTAAAASUSV   *%======%*   UUAAVAATYYYY",
"ggAAAAgVVVS ==**$======$**== UUUAAUUYYYY",
"5rgVAgAVVV ===*%========%*=== UUUUTYYYYY",
"rrgAAVAg  +===**========**===+  YYYYYYYY",
"r5rVVVV **+******======******+** YYYYYYY",
"5;rrrg ***%$$******==******$$%*** YYYYYY",
":;:5rV %*%$====**********====$%*% YYYYYY",
"5:::5r %%$*=====********=====*$%% YUYSYY",
"r8:::5 +%$*====**********====*$%+ UUYSCG",
"hr::: %%%$**==***==**==***==**$%%% USVrh",
"SV8: %**%%$*****========*****$%**%% SV5:",
"SSh8 **=*%%$$$$*====*===*$$$$%%*=** Vr5:",
"USVV *****%%%%$**==***=**$%%%%****% Cr::",
"UUSA %***%%%*%%$***$$***$%%%%%%**%% h5;;",
"SYUSV %%%$%%%%%%$$$%%$$$%%%%%*$%%% er5:;",
"AUUU $++$%%***%%%%%%%%%%%%****%$++$ 5:;;",
"AVA %%$$+%****%%%%****%$%%****%+$$%% :;5",
"AVA %%%$+%****%$%******$$%%***%+$%%% :55",
"AV  $%%$$+%**%$+$%****%$++%**%+$$%%$  VV",
"A ++X$$$$$+$$$+$+%%**%%+$$++++$$%%$X++ S",
"V $++XX+%$$+++$$$+%%%%+$$$$$$$$$+XX+$$ Y",
"g $$+++X%%$$$$$$$$++++$$$$$$%%%%X+++$$ Y",
"A $$$++X%%%%$$$%%$$$$$$%%$+$$%%$X++$$+ T",
"A $$$++X$%%%$+%%%%%$$%%%%%XX$$$X+++$$+ T",
"VU $$+++X$$$XX%%%%%%%%%%%%X+XXX++++++ YY",
"UUA .X$++XXX+X$%%%%$$%%%%$X+++++$$.. YYY",
"VVAg $$$++++++X$%%$XX$%%$X+++++$+$$ GTTT",
"hrgg $$$$$+++++XXXX++XXXX++$++$$$$$ TGCC",
"rrrV $$$$++$$$+++++$$+++++$$$X+$$$+ Accg",
":5gV +$$++X$$+$$++$$$$$+$$$$$X++$$+ VVVg",
":5gVS +++.$$$$$$+$$$$$$++$$$$+X+++ VVAVV",
":5rVhr   .$$$$$$X+$$$$+X+$$$$+.   VVAVVV",
"55hVV5&@@ +$$$$+.+$$$$+.++$$++ @@&VVAAVV",
"rrrrr&@@@@  +$+  ++$$++  +++  @@@@&VVUUV",
"rrrrr&@@@@@@   O  ++++  O   @@@@@@&VUAUV",
"rgr:r&@@@@@@ ##OoO    OoO## @@@@@@&USAVV",
"Vrr5r&@@@@@@oOOOOO####OOOOOo@@@&@@&YUVUS",
"ggVVhV&@&&@@o  oO######Oo  o@@@@@&SSUUUU",
"gVSSGG&@&&@@@@@@ o####o @@@@@@@@@&VSUUYY",
"VVTYYY&&@@@@@&@@@ OOOO @@@@@&&@@&&rVUUSS",
"VUUUYYY&@@@@@@@@@@    @@@@@@&@@@&elRYSVh",
"SUYUYYYY&&@@@@@@@@@@@@@@@@@@@@&&*ClCShrr",
"UYYYYYYYY&&&@@&@@@@@@@@@@&@@&&&::euCVrrr",
"UYYYYYYYYYY&&&&&@@@@@@@@&&&&&;;:eeeurrrr",
"YYYYYYYYYYUAAAA&&&&&&&&&&Vhr::5ruuu444dC",
"YYYYYYYYYYSUAVVUUUVVg5;5hVGr:::rju4444aC"
};
